G04 #@! TF.GenerationSoftware,KiCad,Pcbnew,9.0.4*
G04 #@! TF.CreationDate,2026-02-01T17:43:42+05:30*
G04 #@! TF.ProjectId,Classdamp ltversion,436c6173-7364-4616-9d70-206c74766572,rev?*
G04 #@! TF.SameCoordinates,Original*
G04 #@! TF.FileFunction,Copper,L1,Top*
G04 #@! TF.FilePolarity,Positive*
%FSLAX46Y46*%
G04 Gerber Fmt 4.6, Leading zero omitted, Abs format (unit mm)*
G04 Created by KiCad (PCBNEW 9.0.4) date 2026-02-01 17:43:42*
%MOMM*%
%LPD*%
G01*
G04 APERTURE LIST*
G04 Aperture macros list*
%AMRoundRect*
0 Rectangle with rounded corners*
0 $1 Rounding radius*
0 $2 $3 $4 $5 $6 $7 $8 $9 X,Y pos of 4 corners*
0 Add a 4 corners polygon primitive as box body*
4,1,4,$2,$3,$4,$5,$6,$7,$8,$9,$2,$3,0*
0 Add four circle primitives for the rounded corners*
1,1,$1+$1,$2,$3*
1,1,$1+$1,$4,$5*
1,1,$1+$1,$6,$7*
1,1,$1+$1,$8,$9*
0 Add four rect primitives between the rounded corners*
20,1,$1+$1,$2,$3,$4,$5,0*
20,1,$1+$1,$4,$5,$6,$7,0*
20,1,$1+$1,$6,$7,$8,$9,0*
20,1,$1+$1,$8,$9,$2,$3,0*%
G04 Aperture macros list end*
G04 #@! TA.AperFunction,SMDPad,CuDef*
%ADD10RoundRect,0.100000X-0.217500X-0.100000X0.217500X-0.100000X0.217500X0.100000X-0.217500X0.100000X0*%
G04 #@! TD*
G04 #@! TA.AperFunction,SMDPad,CuDef*
%ADD11RoundRect,0.250000X-0.312500X-0.825000X0.312500X-0.825000X0.312500X0.825000X-0.312500X0.825000X0*%
G04 #@! TD*
G04 #@! TA.AperFunction,SMDPad,CuDef*
%ADD12RoundRect,0.155000X-0.212500X-0.155000X0.212500X-0.155000X0.212500X0.155000X-0.212500X0.155000X0*%
G04 #@! TD*
G04 #@! TA.AperFunction,SMDPad,CuDef*
%ADD13RoundRect,0.150000X-0.512500X-0.150000X0.512500X-0.150000X0.512500X0.150000X-0.512500X0.150000X0*%
G04 #@! TD*
G04 #@! TA.AperFunction,SMDPad,CuDef*
%ADD14RoundRect,0.150000X-0.587500X-0.150000X0.587500X-0.150000X0.587500X0.150000X-0.587500X0.150000X0*%
G04 #@! TD*
G04 #@! TA.AperFunction,SMDPad,CuDef*
%ADD15RoundRect,0.150000X-0.825000X-0.150000X0.825000X-0.150000X0.825000X0.150000X-0.825000X0.150000X0*%
G04 #@! TD*
G04 #@! TA.AperFunction,SMDPad,CuDef*
%ADD16RoundRect,0.250000X-0.337500X-1.450000X0.337500X-1.450000X0.337500X1.450000X-0.337500X1.450000X0*%
G04 #@! TD*
G04 #@! TA.AperFunction,ComponentPad*
%ADD17RoundRect,0.250000X1.550000X-0.650000X1.550000X0.650000X-1.550000X0.650000X-1.550000X-0.650000X0*%
G04 #@! TD*
G04 #@! TA.AperFunction,ComponentPad*
%ADD18O,3.600000X1.800000*%
G04 #@! TD*
G04 #@! TA.AperFunction,ComponentPad*
%ADD19R,1.300000X1.300000*%
G04 #@! TD*
G04 #@! TA.AperFunction,ComponentPad*
%ADD20C,1.300000*%
G04 #@! TD*
G04 #@! TA.AperFunction,ComponentPad*
%ADD21RoundRect,0.250000X-0.650000X-1.550000X0.650000X-1.550000X0.650000X1.550000X-0.650000X1.550000X0*%
G04 #@! TD*
G04 #@! TA.AperFunction,ComponentPad*
%ADD22O,1.800000X3.600000*%
G04 #@! TD*
G04 #@! TA.AperFunction,SMDPad,CuDef*
%ADD23RoundRect,0.250000X-0.362500X-0.700000X0.362500X-0.700000X0.362500X0.700000X-0.362500X0.700000X0*%
G04 #@! TD*
G04 #@! TA.AperFunction,ComponentPad*
%ADD24R,1.600000X1.600000*%
G04 #@! TD*
G04 #@! TA.AperFunction,ComponentPad*
%ADD25C,1.600000*%
G04 #@! TD*
G04 #@! TA.AperFunction,ViaPad*
%ADD26C,0.600000*%
G04 #@! TD*
G04 #@! TA.AperFunction,Conductor*
%ADD27C,0.600000*%
G04 #@! TD*
G04 #@! TA.AperFunction,Conductor*
%ADD28C,1.000000*%
G04 #@! TD*
G04 #@! TA.AperFunction,Conductor*
%ADD29C,2.000000*%
G04 #@! TD*
G04 APERTURE END LIST*
D10*
X143865000Y-100040000D03*
X144680000Y-100040000D03*
D11*
X140675000Y-96000000D03*
X142000000Y-96000000D03*
D10*
X143865000Y-103540000D03*
X144680000Y-103540000D03*
D12*
X159865000Y-112000000D03*
X161000000Y-112000000D03*
D13*
X143725000Y-114100000D03*
X143725000Y-115050000D03*
X143725000Y-116000000D03*
X146000000Y-116000000D03*
X146000000Y-114100000D03*
D14*
X136125000Y-113050000D03*
X136125000Y-114950000D03*
X138000000Y-114000000D03*
D10*
X163181500Y-69648286D03*
X163996500Y-69648286D03*
D11*
X144675000Y-80000000D03*
X146000000Y-80000000D03*
D15*
X136167500Y-100615000D03*
X136167500Y-101885000D03*
X136167500Y-103155000D03*
X136167500Y-104425000D03*
X141117500Y-104425000D03*
X141117500Y-103155000D03*
X141117500Y-101885000D03*
X141117500Y-100615000D03*
D16*
X149325000Y-101000000D03*
X151000000Y-101000000D03*
D17*
X124875000Y-99640000D03*
D18*
X124875000Y-94560000D03*
D19*
X132460000Y-109000000D03*
D20*
X133730000Y-107730000D03*
X135000000Y-109000000D03*
D11*
X168675000Y-64000000D03*
X170000000Y-64000000D03*
D21*
X128920000Y-79000000D03*
D22*
X134000000Y-79000000D03*
D11*
X123675000Y-116000000D03*
X125000000Y-116000000D03*
D23*
X154675000Y-102000000D03*
X158000000Y-102000000D03*
D12*
X167865000Y-72000000D03*
X169000000Y-72000000D03*
D24*
X154372500Y-92750000D03*
D25*
X160872500Y-92750000D03*
D14*
X129125000Y-112050000D03*
X129125000Y-113950000D03*
X131000000Y-113000000D03*
D19*
X154292500Y-112180000D03*
D20*
X155562500Y-110910000D03*
X156832500Y-112180000D03*
D10*
X143865000Y-101790000D03*
X144680000Y-101790000D03*
D12*
X167865000Y-92000000D03*
X169000000Y-92000000D03*
D21*
X130455000Y-66737500D03*
D22*
X135535000Y-66737500D03*
D12*
X149865000Y-108000000D03*
X151000000Y-108000000D03*
X162415000Y-64000000D03*
X163550000Y-64000000D03*
D26*
X137888128Y-101000000D03*
X139488128Y-100897220D03*
X136762500Y-114084290D03*
X154000000Y-111000000D03*
X146000000Y-98000000D03*
X156000000Y-100000000D03*
X155209054Y-108750942D03*
X139000000Y-111000000D03*
X145801000Y-101668214D03*
X144862500Y-116449810D03*
X143000000Y-102000000D03*
X149000000Y-114000000D03*
X144682500Y-103540000D03*
D27*
X137003128Y-101885000D02*
X137888128Y-101000000D01*
X140142501Y-103155000D02*
X141117500Y-103155000D01*
X139488128Y-100897220D02*
X139488128Y-102500627D01*
X136167500Y-101885000D02*
X137003128Y-101885000D01*
X139488128Y-102500627D02*
X140142501Y-103155000D01*
X136125000Y-113050000D02*
X136125000Y-113446790D01*
X161000000Y-112000000D02*
X169000000Y-104000000D01*
D28*
X170000000Y-71000000D02*
X169000000Y-72000000D01*
D27*
X169000000Y-92000000D02*
X169000000Y-72000000D01*
X136125000Y-113446790D02*
X136762500Y-114084290D01*
X146000000Y-80000000D02*
X146000000Y-98000000D01*
X151000000Y-108000000D02*
X154000000Y-111000000D01*
X169000000Y-104000000D02*
X169000000Y-92000000D01*
D28*
X170000000Y-64000000D02*
X170000000Y-71000000D01*
D27*
X146290000Y-104425000D02*
X149865000Y-108000000D01*
X141117500Y-104425000D02*
X146290000Y-104425000D01*
X156886500Y-76443714D02*
X160978500Y-72351714D01*
X164000000Y-70000000D02*
X164000000Y-69648286D01*
X146000000Y-116000000D02*
X155865000Y-116000000D01*
X160978500Y-72351714D02*
X161648286Y-72351714D01*
X155865000Y-116000000D02*
X159865000Y-112000000D01*
X156886500Y-109021500D02*
X156886500Y-76443714D01*
X161648286Y-72351714D02*
X164000000Y-70000000D01*
X163052530Y-65201000D02*
X164000000Y-66148470D01*
X164000000Y-66148470D02*
X164000000Y-70000000D01*
X159865000Y-112000000D02*
X156886500Y-109021500D01*
X125000000Y-116000000D02*
X143725000Y-116000000D01*
D28*
X167474000Y-65201000D02*
X163052530Y-65201000D01*
X162349000Y-64497470D02*
X162349000Y-64190000D01*
X163052530Y-65201000D02*
X162349000Y-64497470D01*
X168675000Y-64000000D02*
X167474000Y-65201000D01*
X135535000Y-66737500D02*
X139283500Y-62989000D01*
X163550000Y-63550000D02*
X163550000Y-64000000D01*
X162989000Y-62989000D02*
X163550000Y-63550000D01*
X139283500Y-62989000D02*
X162989000Y-62989000D01*
D27*
X158000000Y-102000000D02*
X158000000Y-93782608D01*
X167865000Y-83917608D02*
X167865000Y-72000000D01*
X152000000Y-100000000D02*
X156000000Y-100000000D01*
X158000000Y-93782608D02*
X167865000Y-83917608D01*
X151000000Y-101000000D02*
X152000000Y-100000000D01*
X167865000Y-92000000D02*
X161622500Y-92000000D01*
X161622500Y-92000000D02*
X160872500Y-92750000D01*
D29*
X130455000Y-66737500D02*
X130455000Y-75455000D01*
X130455000Y-75455000D02*
X134000000Y-79000000D01*
D27*
X124875000Y-94560000D02*
X132460000Y-102145000D01*
X132460000Y-102145000D02*
X132460000Y-109000000D01*
X154675000Y-108216888D02*
X155209054Y-108750942D01*
X154292500Y-112180000D02*
X138180000Y-112180000D01*
X154675000Y-102000000D02*
X154675000Y-108216888D01*
X138180000Y-112180000D02*
X135000000Y-109000000D01*
X149325000Y-97797500D02*
X154372500Y-92750000D01*
X149325000Y-101000000D02*
X149325000Y-97797500D01*
X135125000Y-113950000D02*
X136125000Y-114950000D01*
X138688128Y-101609371D02*
X138688128Y-83780370D01*
X129125000Y-113950000D02*
X135125000Y-113950000D01*
X162508214Y-69648286D02*
X163178000Y-69648286D01*
X123675000Y-114925000D02*
X124650000Y-113950000D01*
X160156500Y-72000000D02*
X162508214Y-69648286D01*
X123675000Y-116000000D02*
X123675000Y-114925000D01*
X150468498Y-72000000D02*
X160156500Y-72000000D01*
X137142499Y-103155000D02*
X139000000Y-105012501D01*
X137142499Y-103155000D02*
X138688128Y-101609371D01*
X136167500Y-103155000D02*
X137142499Y-103155000D01*
X124650000Y-113950000D02*
X129125000Y-113950000D01*
X138688128Y-83780370D02*
X150468498Y-72000000D01*
X139000000Y-105012501D02*
X139000000Y-111000000D01*
X155562500Y-110910000D02*
X155562500Y-113212000D01*
X131000000Y-113000000D02*
X133730000Y-110270000D01*
X136986310Y-112249000D02*
X138000000Y-113262690D01*
X155443500Y-113331000D02*
X153141500Y-113331000D01*
X153141500Y-113331000D02*
X152810500Y-113000000D01*
X131751000Y-112249000D02*
X136986310Y-112249000D01*
X155562500Y-113212000D02*
X155443500Y-113331000D01*
X152810500Y-113000000D02*
X139000000Y-113000000D01*
X139000000Y-113000000D02*
X138000000Y-114000000D01*
X131000000Y-113000000D02*
X131751000Y-112249000D01*
X138000000Y-113262690D02*
X138000000Y-114000000D01*
X133730000Y-110270000D02*
X133730000Y-107730000D01*
X142921786Y-100615000D02*
X143395786Y-101089000D01*
X136167500Y-104425000D02*
X135192501Y-104425000D01*
X133261000Y-102493499D02*
X133261000Y-100064687D01*
X143736310Y-117576000D02*
X144862500Y-116449810D01*
X123044498Y-117576000D02*
X143736310Y-117576000D01*
X140675000Y-100172500D02*
X141117500Y-100615000D01*
X143395786Y-101089000D02*
X145221786Y-101089000D01*
X133261000Y-100064687D02*
X133511687Y-99814000D01*
X126355313Y-93159000D02*
X123394687Y-93159000D01*
X135192501Y-104425000D02*
X133261000Y-102493499D01*
X141117500Y-100615000D02*
X142921786Y-100615000D01*
X145221786Y-101089000D02*
X145801000Y-101668214D01*
X122574000Y-93979687D02*
X122574000Y-117105502D01*
X140675000Y-96000000D02*
X140675000Y-100172500D01*
X146000000Y-114100000D02*
X148900000Y-114100000D01*
X123394687Y-93159000D02*
X122574000Y-93979687D01*
X133261000Y-100064687D02*
X126355313Y-93159000D01*
X122574000Y-117105502D02*
X123044498Y-117576000D01*
X133511687Y-99814000D02*
X136000000Y-99814000D01*
X148900000Y-114100000D02*
X149000000Y-114000000D01*
X141117500Y-101885000D02*
X141752214Y-101885000D01*
X144296214Y-102801000D02*
X144682500Y-103187286D01*
X142668214Y-102801000D02*
X144296214Y-102801000D01*
X141752214Y-101885000D02*
X142668214Y-102801000D01*
X144682500Y-103187286D02*
X144682500Y-103540000D01*
X143725000Y-114100000D02*
X144412690Y-114100000D01*
X155085740Y-109759000D02*
X146415740Y-101089000D01*
X156039260Y-109759000D02*
X155085740Y-109759000D01*
X144675000Y-93325000D02*
X142000000Y-96000000D01*
X145213690Y-114901000D02*
X155739260Y-114901000D01*
X144412690Y-114100000D02*
X145213690Y-114901000D01*
X157983500Y-112656760D02*
X157983500Y-111703240D01*
X144675000Y-80000000D02*
X144675000Y-93325000D01*
X146415740Y-100415740D02*
X142000000Y-96000000D01*
X157983500Y-111703240D02*
X156039260Y-109759000D01*
X155739260Y-114901000D02*
X157983500Y-112656760D01*
X146415740Y-101089000D02*
X146415740Y-100415740D01*
G04 #@! TA.AperFunction,Conductor*
G36*
X173438633Y-58541331D02*
G01*
X173486311Y-58592405D01*
X173499500Y-58648056D01*
X173499500Y-118375500D01*
X173479815Y-118442539D01*
X173427011Y-118488294D01*
X173375500Y-118499500D01*
X144203831Y-118499500D01*
X144136792Y-118479815D01*
X144091037Y-118427011D01*
X144081093Y-118357853D01*
X144110118Y-118294297D01*
X144134940Y-118272398D01*
X144194260Y-118232760D01*
X144246599Y-118197789D01*
X145484289Y-116960099D01*
X145541144Y-116875009D01*
X145554112Y-116855602D01*
X145582050Y-116832257D01*
X145607720Y-116810804D01*
X145607724Y-116810803D01*
X145607727Y-116810801D01*
X145607745Y-116810798D01*
X145657209Y-116800500D01*
X155943844Y-116800500D01*
X155943845Y-116800499D01*
X156098497Y-116769737D01*
X156244179Y-116709394D01*
X156375289Y-116621789D01*
X160170528Y-112826548D01*
X160179962Y-112820530D01*
X160184566Y-112814466D01*
X160206384Y-112803674D01*
X160215656Y-112797760D01*
X160219588Y-112796323D01*
X160339900Y-112761370D01*
X160379715Y-112737823D01*
X160390440Y-112733905D01*
X160414357Y-112732356D01*
X160437588Y-112726461D01*
X160449840Y-112730058D01*
X160460164Y-112729390D01*
X160474328Y-112737248D01*
X160496113Y-112743645D01*
X160525300Y-112760906D01*
X160525305Y-112760908D01*
X160684216Y-112807077D01*
X160684222Y-112807078D01*
X160721342Y-112809999D01*
X160721358Y-112810000D01*
X160750000Y-112810000D01*
X161250000Y-112810000D01*
X161278642Y-112810000D01*
X161278657Y-112809999D01*
X161315777Y-112807078D01*
X161315783Y-112807077D01*
X161474694Y-112760908D01*
X161474697Y-112760907D01*
X161617142Y-112676666D01*
X161617150Y-112676660D01*
X161734160Y-112559650D01*
X161734166Y-112559642D01*
X161818407Y-112417197D01*
X161818409Y-112417194D01*
X161864578Y-112258281D01*
X161865230Y-112250000D01*
X161250000Y-112250000D01*
X161250000Y-112810000D01*
X160750000Y-112810000D01*
X160750000Y-111750000D01*
X161250000Y-111750000D01*
X161865230Y-111750000D01*
X161864578Y-111741718D01*
X161818409Y-111582805D01*
X161818407Y-111582802D01*
X161734166Y-111440357D01*
X161734160Y-111440349D01*
X161617150Y-111323339D01*
X161617142Y-111323333D01*
X161474697Y-111239092D01*
X161474694Y-111239091D01*
X161315783Y-111192922D01*
X161315777Y-111192921D01*
X161278657Y-111190000D01*
X161250000Y-111190000D01*
X161250000Y-111750000D01*
X160750000Y-111750000D01*
X160750000Y-111190000D01*
X160721342Y-111190000D01*
X160684222Y-111192921D01*
X160684216Y-111192922D01*
X160525304Y-111239091D01*
X160525300Y-111239093D01*
X160496109Y-111256356D01*
X160428384Y-111273536D01*
X160390440Y-111266093D01*
X160379706Y-111262171D01*
X160339900Y-111238630D01*
X160219592Y-111203676D01*
X160215659Y-111202240D01*
X160201350Y-111191678D01*
X160170528Y-111173450D01*
X157723319Y-108726241D01*
X157689834Y-108664918D01*
X157687000Y-108638560D01*
X157687000Y-103574499D01*
X157706685Y-103507460D01*
X157759489Y-103461705D01*
X157811000Y-103450499D01*
X158412502Y-103450499D01*
X158412508Y-103450499D01*
X158515297Y-103439999D01*
X158681834Y-103384814D01*
X158831156Y-103292712D01*
X158955212Y-103168656D01*
X159047314Y-103019334D01*
X159102499Y-102852797D01*
X159113000Y-102750009D01*
X159112999Y-101249992D01*
X159102499Y-101147203D01*
X159047314Y-100980666D01*
X158955212Y-100831344D01*
X158836819Y-100712951D01*
X158803334Y-100651628D01*
X158800500Y-100625270D01*
X158800500Y-94165547D01*
X158820185Y-94098508D01*
X158836815Y-94077870D01*
X159545986Y-93368698D01*
X159607307Y-93335215D01*
X159676998Y-93340199D01*
X159732932Y-93382070D01*
X159744149Y-93400084D01*
X159760214Y-93431613D01*
X159880528Y-93597213D01*
X160025286Y-93741971D01*
X160153727Y-93835287D01*
X160190890Y-93862287D01*
X160279712Y-93907544D01*
X160373276Y-93955218D01*
X160373278Y-93955218D01*
X160373281Y-93955220D01*
X160477637Y-93989127D01*
X160567965Y-94018477D01*
X160669057Y-94034488D01*
X160770148Y-94050500D01*
X160770149Y-94050500D01*
X160974851Y-94050500D01*
X160974852Y-94050500D01*
X161177034Y-94018477D01*
X161371719Y-93955220D01*
X161554110Y-93862287D01*
X161650401Y-93792328D01*
X161719713Y-93741971D01*
X161719715Y-93741968D01*
X161719719Y-93741966D01*
X161864466Y-93597219D01*
X161864468Y-93597215D01*
X161864471Y-93597213D01*
X161917232Y-93524590D01*
X161984787Y-93431610D01*
X162077720Y-93249219D01*
X162140977Y-93054534D01*
X162164645Y-92905101D01*
X162194574Y-92841967D01*
X162253886Y-92805036D01*
X162287118Y-92800500D01*
X167507138Y-92800500D01*
X167541730Y-92805423D01*
X167549135Y-92807574D01*
X167549142Y-92807576D01*
X167586297Y-92810500D01*
X168143702Y-92810499D01*
X168180858Y-92807576D01*
X168339900Y-92761370D01*
X168369869Y-92743645D01*
X168437588Y-92726461D01*
X168496113Y-92743645D01*
X168525300Y-92760906D01*
X168525305Y-92760908D01*
X168684216Y-92807077D01*
X168684222Y-92807078D01*
X168721342Y-92809999D01*
X168721358Y-92810000D01*
X168750000Y-92810000D01*
X169250000Y-92810000D01*
X169278642Y-92810000D01*
X169278657Y-92809999D01*
X169315777Y-92807078D01*
X169315783Y-92807077D01*
X169474694Y-92760908D01*
X169474697Y-92760907D01*
X169617142Y-92676666D01*
X169617150Y-92676660D01*
X169734160Y-92559650D01*
X169734166Y-92559642D01*
X169818407Y-92417197D01*
X169818409Y-92417194D01*
X169864578Y-92258281D01*
X169865230Y-92250000D01*
X169250000Y-92250000D01*
X169250000Y-92810000D01*
X168750000Y-92810000D01*
X168750000Y-91750000D01*
X169250000Y-91750000D01*
X169865230Y-91750000D01*
X169864578Y-91741718D01*
X169818409Y-91582805D01*
X169818407Y-91582802D01*
X169734166Y-91440357D01*
X169734160Y-91440349D01*
X169617150Y-91323339D01*
X169617142Y-91323333D01*
X169474697Y-91239092D01*
X169474694Y-91239091D01*
X169315783Y-91192922D01*
X169315777Y-91192921D01*
X169278657Y-91190000D01*
X169250000Y-91190000D01*
X169250000Y-91750000D01*
X168750000Y-91750000D01*
X168750000Y-91190000D01*
X168721342Y-91190000D01*
X168684222Y-91192921D01*
X168684216Y-91192922D01*
X168525304Y-91239091D01*
X168525300Y-91239093D01*
X168496109Y-91256356D01*
X168428384Y-91273536D01*
X168369869Y-91256354D01*
X168340679Y-91239091D01*
X168339900Y-91238630D01*
X168339899Y-91238629D01*
X168339898Y-91238629D01*
X168339895Y-91238628D01*
X168180862Y-91192424D01*
X168180856Y-91192423D01*
X168143703Y-91189500D01*
X167586309Y-91189500D01*
X167586284Y-91189501D01*
X167549143Y-91192423D01*
X167541728Y-91194578D01*
X167507138Y-91199500D01*
X162014548Y-91199500D01*
X161947509Y-91179815D01*
X161901754Y-91127011D01*
X161891810Y-91057853D01*
X161920835Y-90994297D01*
X161926867Y-90987819D01*
X168486786Y-84427900D01*
X168486789Y-84427897D01*
X168574394Y-84296787D01*
X168634737Y-84151105D01*
X168665500Y-83996450D01*
X168665500Y-83838765D01*
X168665500Y-72934000D01*
X168685185Y-72866961D01*
X168737989Y-72821206D01*
X168739017Y-72820982D01*
X168750000Y-72810000D01*
X169250000Y-72810000D01*
X169278642Y-72810000D01*
X169278657Y-72809999D01*
X169315777Y-72807078D01*
X169315783Y-72807077D01*
X169474694Y-72760908D01*
X169474697Y-72760907D01*
X169617142Y-72676666D01*
X169617150Y-72676660D01*
X169734160Y-72559650D01*
X169734166Y-72559642D01*
X169818407Y-72417197D01*
X169818409Y-72417194D01*
X169864578Y-72258281D01*
X169865230Y-72250000D01*
X169250000Y-72250000D01*
X169250000Y-72810000D01*
X168750000Y-72810000D01*
X168750000Y-71750000D01*
X169250000Y-71750000D01*
X169865230Y-71750000D01*
X169864578Y-71741718D01*
X169818409Y-71582805D01*
X169818407Y-71582802D01*
X169734166Y-71440357D01*
X169734160Y-71440349D01*
X169617150Y-71323339D01*
X169617142Y-71323333D01*
X169474697Y-71239092D01*
X169474694Y-71239091D01*
X169315783Y-71192922D01*
X169315777Y-71192921D01*
X169278657Y-71190000D01*
X169250000Y-71190000D01*
X169250000Y-71750000D01*
X168750000Y-71750000D01*
X168750000Y-71190000D01*
X168721342Y-71190000D01*
X168684222Y-71192921D01*
X168684216Y-71192922D01*
X168525304Y-71239091D01*
X168525300Y-71239093D01*
X168496109Y-71256356D01*
X168428384Y-71273536D01*
X168369869Y-71256354D01*
X168340679Y-71239091D01*
X168339900Y-71238630D01*
X168339899Y-71238629D01*
X168339898Y-71238629D01*
X168339895Y-71238628D01*
X168180862Y-71192424D01*
X168180856Y-71192423D01*
X168143703Y-71189500D01*
X167586309Y-71189500D01*
X167586284Y-71189501D01*
X167549145Y-71192423D01*
X167390099Y-71238630D01*
X167247549Y-71322934D01*
X167247540Y-71322941D01*
X167130441Y-71440040D01*
X167130434Y-71440049D01*
X167046129Y-71582601D01*
X167046128Y-71582604D01*
X166999924Y-71741637D01*
X166999923Y-71741643D01*
X166997000Y-71778789D01*
X166997000Y-72221190D01*
X166997001Y-72221215D01*
X166999923Y-72258354D01*
X167046130Y-72417401D01*
X167047229Y-72419258D01*
X167047736Y-72421111D01*
X167049228Y-72424559D01*
X167048737Y-72424771D01*
X167064500Y-72482384D01*
X167064500Y-83534668D01*
X167044815Y-83601707D01*
X167028181Y-83622349D01*
X157898681Y-92751849D01*
X157837358Y-92785334D01*
X157767666Y-92780350D01*
X157711733Y-92738478D01*
X157687316Y-92673014D01*
X157687000Y-92664168D01*
X157687000Y-76826654D01*
X157706685Y-76759615D01*
X157723319Y-76738973D01*
X161273759Y-73188533D01*
X161335082Y-73155048D01*
X161361440Y-73152214D01*
X161727130Y-73152214D01*
X161727131Y-73152213D01*
X161881783Y-73121451D01*
X162027465Y-73061108D01*
X162158575Y-72973503D01*
X164621789Y-70510289D01*
X164709394Y-70379179D01*
X164769737Y-70233497D01*
X164800500Y-70078842D01*
X164800500Y-69921157D01*
X164800500Y-69902113D01*
X164801561Y-69885928D01*
X164814500Y-69787647D01*
X164814499Y-69508926D01*
X164801561Y-69410643D01*
X164800500Y-69394459D01*
X164800500Y-66325500D01*
X164820185Y-66258461D01*
X164872989Y-66212706D01*
X164924500Y-66201500D01*
X167572542Y-66201500D01*
X167603566Y-66195328D01*
X167669188Y-66182275D01*
X167765836Y-66163051D01*
X167819165Y-66140961D01*
X167947914Y-66087632D01*
X168111782Y-65978139D01*
X168251139Y-65838782D01*
X168251139Y-65838780D01*
X168261347Y-65828573D01*
X168261349Y-65828570D01*
X168478101Y-65611818D01*
X168539424Y-65578333D01*
X168565782Y-65575499D01*
X169037502Y-65575499D01*
X169037508Y-65575499D01*
X169140297Y-65564999D01*
X169299292Y-65512312D01*
X169369118Y-65509911D01*
X169377298Y-65512313D01*
X169534802Y-65564505D01*
X169534809Y-65564506D01*
X169637519Y-65574999D01*
X169749999Y-65574999D01*
X170250000Y-65574999D01*
X170362472Y-65574999D01*
X170362486Y-65574998D01*
X170465197Y-65564505D01*
X170631619Y-65509358D01*
X170631624Y-65509356D01*
X170780845Y-65417315D01*
X170904815Y-65293345D01*
X170996856Y-65144124D01*
X170996858Y-65144119D01*
X171052005Y-64977697D01*
X171052006Y-64977690D01*
X171062499Y-64874986D01*
X171062500Y-64874973D01*
X171062500Y-64250000D01*
X170250000Y-64250000D01*
X170250000Y-65574999D01*
X169749999Y-65574999D01*
X169750000Y-65574998D01*
X169750000Y-63750000D01*
X170250000Y-63750000D01*
X171062499Y-63750000D01*
X171062499Y-63125028D01*
X171062498Y-63125013D01*
X171052005Y-63022302D01*
X170996858Y-62855880D01*
X170996856Y-62855875D01*
X170904815Y-62706654D01*
X170780845Y-62582684D01*
X170631624Y-62490643D01*
X170631619Y-62490641D01*
X170465197Y-62435494D01*
X170465190Y-62435493D01*
X170362486Y-62425000D01*
X170250000Y-62425000D01*
X170250000Y-63750000D01*
X169750000Y-63750000D01*
X169750000Y-62425000D01*
X169637527Y-62425000D01*
X169637512Y-62425001D01*
X169534801Y-62435494D01*
X169377295Y-62487686D01*
X169307467Y-62490088D01*
X169299301Y-62487689D01*
X169140297Y-62435001D01*
X169140295Y-62435000D01*
X169037510Y-62424500D01*
X168312498Y-62424500D01*
X168312480Y-62424501D01*
X168209703Y-62435000D01*
X168209700Y-62435001D01*
X168043168Y-62490185D01*
X168043163Y-62490187D01*
X167893842Y-62582289D01*
X167769789Y-62706342D01*
X167677687Y-62855663D01*
X167677685Y-62855668D01*
X167677615Y-62855880D01*
X167622501Y-63022203D01*
X167622501Y-63022204D01*
X167622500Y-63022204D01*
X167612000Y-63124983D01*
X167612000Y-63596717D01*
X167592315Y-63663756D01*
X167575681Y-63684398D01*
X167095899Y-64164181D01*
X167034576Y-64197666D01*
X167008218Y-64200500D01*
X164674500Y-64200500D01*
X164607461Y-64180815D01*
X164561706Y-64128011D01*
X164550500Y-64076500D01*
X164550500Y-63451456D01*
X164518504Y-63290606D01*
X164516561Y-63280836D01*
X164512051Y-63258164D01*
X164456889Y-63124992D01*
X164456031Y-63122921D01*
X164456026Y-63122907D01*
X164436635Y-63076093D01*
X164436634Y-63076092D01*
X164436632Y-63076086D01*
X164400629Y-63022203D01*
X164327139Y-62912217D01*
X164184686Y-62769764D01*
X164184655Y-62769735D01*
X163770479Y-62355559D01*
X163770459Y-62355537D01*
X163626785Y-62211863D01*
X163626781Y-62211860D01*
X163462920Y-62102371D01*
X163462911Y-62102366D01*
X163390315Y-62072296D01*
X163334165Y-62049038D01*
X163280836Y-62026949D01*
X163280832Y-62026948D01*
X163280828Y-62026946D01*
X163184188Y-62007724D01*
X163087544Y-61988500D01*
X163087541Y-61988500D01*
X139388175Y-61988500D01*
X139388155Y-61988499D01*
X139382041Y-61988499D01*
X139184960Y-61988499D01*
X139184957Y-61988499D01*
X138991672Y-62026946D01*
X138991664Y-62026948D01*
X138809588Y-62102366D01*
X138809579Y-62102371D01*
X138645719Y-62211859D01*
X138645715Y-62211862D01*
X136298856Y-64558722D01*
X136237533Y-64592207D01*
X136167841Y-64587223D01*
X136154880Y-64581526D01*
X136072606Y-64539604D01*
X136072603Y-64539603D01*
X135862952Y-64471485D01*
X135711516Y-64447500D01*
X135645222Y-64437000D01*
X135424778Y-64437000D01*
X135358484Y-64447500D01*
X135207047Y-64471485D01*
X134997396Y-64539603D01*
X134997393Y-64539604D01*
X134800974Y-64639687D01*
X134622641Y-64769252D01*
X134622636Y-64769256D01*
X134466756Y-64925136D01*
X134466752Y-64925141D01*
X134337187Y-65103474D01*
X134237104Y-65299893D01*
X134237103Y-65299896D01*
X134168985Y-65509547D01*
X134134500Y-65727278D01*
X134134500Y-67747721D01*
X134168985Y-67965452D01*
X134237103Y-68175103D01*
X134237104Y-68175106D01*
X134337187Y-68371525D01*
X134466752Y-68549858D01*
X134466756Y-68549863D01*
X134622636Y-68705743D01*
X134622641Y-68705747D01*
X134739742Y-68790825D01*
X134800978Y-68835315D01*
X134885825Y-68878547D01*
X134997393Y-68935395D01*
X134997396Y-68935396D01*
X135102221Y-68969455D01*
X135207049Y-69003515D01*
X135424778Y-69038000D01*
X135424779Y-69038000D01*
X135645221Y-69038000D01*
X135645222Y-69038000D01*
X135862951Y-69003515D01*
X136072606Y-68935395D01*
X136269022Y-68835315D01*
X136447365Y-68705742D01*
X136603242Y-68549865D01*
X136732815Y-68371522D01*
X136832895Y-68175106D01*
X136901015Y-67965451D01*
X136935500Y-67747722D01*
X136935500Y-66803282D01*
X136955185Y-66736243D01*
X136971819Y-66715601D01*
X139661602Y-64025819D01*
X139722925Y-63992334D01*
X139749283Y-63989500D01*
X161224500Y-63989500D01*
X161291539Y-64009185D01*
X161337294Y-64061989D01*
X161348500Y-64113500D01*
X161348500Y-64596011D01*
X161348500Y-64596013D01*
X161348499Y-64596013D01*
X161386947Y-64789299D01*
X161386950Y-64789309D01*
X161462364Y-64971377D01*
X161462371Y-64971390D01*
X161571859Y-65135250D01*
X161571860Y-65135251D01*
X161571861Y-65135252D01*
X161711218Y-65274609D01*
X161711219Y-65274609D01*
X161718286Y-65281676D01*
X161718285Y-65281676D01*
X161718289Y-65281679D01*
X162414745Y-65978137D01*
X162414749Y-65978140D01*
X162578609Y-66087628D01*
X162578615Y-66087631D01*
X162578616Y-66087632D01*
X162760695Y-66163052D01*
X162875857Y-66185958D01*
X162937766Y-66218342D01*
X162939346Y-66219894D01*
X163163181Y-66443729D01*
X163196666Y-66505052D01*
X163199500Y-66531410D01*
X163199500Y-68723786D01*
X163179815Y-68790825D01*
X163127011Y-68836580D01*
X163075500Y-68847786D01*
X162429369Y-68847786D01*
X162274724Y-68878547D01*
X162274712Y-68878550D01*
X162129041Y-68938888D01*
X162129028Y-68938895D01*
X161997925Y-69026496D01*
X161997921Y-69026499D01*
X159861241Y-71163181D01*
X159799918Y-71196666D01*
X159773560Y-71199500D01*
X150389653Y-71199500D01*
X150235008Y-71230261D01*
X150234996Y-71230264D01*
X150089325Y-71290602D01*
X150089312Y-71290609D01*
X149958209Y-71378210D01*
X149958205Y-71378213D01*
X141122794Y-80213626D01*
X138177839Y-83158581D01*
X138122088Y-83214332D01*
X138066337Y-83270082D01*
X137978737Y-83401184D01*
X137978730Y-83401197D01*
X137918392Y-83546868D01*
X137918389Y-83546880D01*
X137887628Y-83701523D01*
X137887628Y-100082152D01*
X137878682Y-100112617D01*
X137871382Y-100143511D01*
X137868910Y-100145895D01*
X137867943Y-100149191D01*
X137843950Y-100169980D01*
X137821103Y-100192027D01*
X137816725Y-100193571D01*
X137815139Y-100194946D01*
X137787820Y-100203769D01*
X137699849Y-100221268D01*
X137630257Y-100215041D01*
X137575080Y-100172178D01*
X137568925Y-100162772D01*
X137510184Y-100063446D01*
X137510178Y-100063438D01*
X137394061Y-99947321D01*
X137394052Y-99947314D01*
X137252696Y-99863717D01*
X137252693Y-99863716D01*
X137094995Y-99817900D01*
X137094989Y-99817899D01*
X137058149Y-99815000D01*
X136918146Y-99815000D01*
X136851107Y-99795315D01*
X136805352Y-99742511D01*
X136796529Y-99715192D01*
X136769738Y-99580508D01*
X136769737Y-99580507D01*
X136769737Y-99580503D01*
X136736385Y-99499983D01*
X136709397Y-99434827D01*
X136709390Y-99434814D01*
X136621789Y-99303711D01*
X136621786Y-99303707D01*
X136510292Y-99192213D01*
X136510288Y-99192210D01*
X136379185Y-99104609D01*
X136379172Y-99104602D01*
X136233501Y-99044264D01*
X136233489Y-99044261D01*
X136078845Y-99013500D01*
X136078842Y-99013500D01*
X133590529Y-99013500D01*
X133432845Y-99013500D01*
X133432844Y-99013500D01*
X133421983Y-99015660D01*
X133352391Y-99009431D01*
X133310114Y-98981723D01*
X126865605Y-92537213D01*
X126865601Y-92537210D01*
X126734498Y-92449609D01*
X126734485Y-92449602D01*
X126588814Y-92389264D01*
X126588802Y-92389261D01*
X126434158Y-92358500D01*
X126434155Y-92358500D01*
X123473530Y-92358500D01*
X123315845Y-92358500D01*
X123315840Y-92358500D01*
X123161197Y-92389260D01*
X123161189Y-92389262D01*
X123015511Y-92449604D01*
X123015501Y-92449609D01*
X122884398Y-92537210D01*
X122884394Y-92537213D01*
X122173759Y-93247850D01*
X122063711Y-93357898D01*
X122021525Y-93400084D01*
X121952209Y-93469399D01*
X121864609Y-93600501D01*
X121864602Y-93600514D01*
X121804264Y-93746185D01*
X121804261Y-93746197D01*
X121773500Y-93900840D01*
X121773500Y-117184348D01*
X121804261Y-117338991D01*
X121804264Y-117339003D01*
X121864602Y-117484674D01*
X121864609Y-117484687D01*
X121952210Y-117615790D01*
X121952213Y-117615794D01*
X122534205Y-118197786D01*
X122534209Y-118197789D01*
X122645868Y-118272398D01*
X122690673Y-118326010D01*
X122699380Y-118395335D01*
X122669225Y-118458363D01*
X122609782Y-118495082D01*
X122576977Y-118499500D01*
X120624500Y-118499500D01*
X120557461Y-118479815D01*
X120511706Y-118427011D01*
X120500500Y-118375500D01*
X120500500Y-77399983D01*
X127519500Y-77399983D01*
X127519500Y-80600001D01*
X127519501Y-80600018D01*
X127530000Y-80702796D01*
X127530001Y-80702799D01*
X127585185Y-80869331D01*
X127585187Y-80869336D01*
X127620069Y-80925888D01*
X127677288Y-81018656D01*
X127801344Y-81142712D01*
X127950666Y-81234814D01*
X128117203Y-81289999D01*
X128219991Y-81300500D01*
X129620008Y-81300499D01*
X129722797Y-81289999D01*
X129889334Y-81234814D01*
X130038656Y-81142712D01*
X130162712Y-81018656D01*
X130254814Y-80869334D01*
X130309999Y-80702797D01*
X130320500Y-80600009D01*
X130320499Y-77741887D01*
X130340184Y-77674849D01*
X130392987Y-77629094D01*
X130462146Y-77619150D01*
X130525702Y-77648175D01*
X130532180Y-77654207D01*
X132563181Y-79685208D01*
X132596666Y-79746531D01*
X132599500Y-79772889D01*
X132599500Y-80010221D01*
X132633985Y-80227952D01*
X132702103Y-80437603D01*
X132702104Y-80437606D01*
X132770122Y-80571096D01*
X132784854Y-80600009D01*
X132802187Y-80634025D01*
X132931752Y-80812358D01*
X132931756Y-80812363D01*
X133087636Y-80968243D01*
X133087641Y-80968247D01*
X133243192Y-81081260D01*
X133265978Y-81097815D01*
X133356854Y-81144119D01*
X133462393Y-81197895D01*
X133462396Y-81197896D01*
X133567221Y-81231955D01*
X133672049Y-81266015D01*
X133889778Y-81300500D01*
X133889779Y-81300500D01*
X134110221Y-81300500D01*
X134110222Y-81300500D01*
X134327951Y-81266015D01*
X134537606Y-81197895D01*
X134734022Y-81097815D01*
X134912365Y-80968242D01*
X135068242Y-80812365D01*
X135197815Y-80634022D01*
X135297895Y-80437606D01*
X135366015Y-80227951D01*
X135400500Y-80010222D01*
X135400500Y-79565063D01*
X135406569Y-79526745D01*
X135463553Y-79351368D01*
X135479973Y-79247689D01*
X135500500Y-79118097D01*
X135500500Y-78881902D01*
X135479005Y-78746197D01*
X135463553Y-78648632D01*
X135463552Y-78648628D01*
X135463552Y-78648627D01*
X135406569Y-78473253D01*
X135400500Y-78434935D01*
X135400500Y-77989778D01*
X135366015Y-77772049D01*
X135297895Y-77562394D01*
X135297895Y-77562393D01*
X135263237Y-77494375D01*
X135197815Y-77365978D01*
X135147848Y-77297204D01*
X135068247Y-77187641D01*
X135068243Y-77187636D01*
X134912363Y-77031756D01*
X134912358Y-77031752D01*
X134734025Y-76902187D01*
X134734024Y-76902186D01*
X134734022Y-76902185D01*
X134645908Y-76857288D01*
X134537606Y-76802104D01*
X134537603Y-76802103D01*
X134327952Y-76733985D01*
X134169135Y-76708831D01*
X134110222Y-76699500D01*
X133889778Y-76699500D01*
X133889773Y-76699500D01*
X133884917Y-76699882D01*
X133884758Y-76697864D01*
X133823900Y-76689963D01*
X133786182Y-76664155D01*
X131991819Y-74869792D01*
X131958334Y-74808469D01*
X131955500Y-74782111D01*
X131955500Y-66619402D01*
X131918553Y-66386135D01*
X131918553Y-66386134D01*
X131918553Y-66386132D01*
X131861568Y-66210751D01*
X131855499Y-66172433D01*
X131855499Y-65137498D01*
X131855498Y-65137481D01*
X131844999Y-65034703D01*
X131844998Y-65034700D01*
X131826109Y-64977697D01*
X131789814Y-64868166D01*
X131697712Y-64718844D01*
X131573656Y-64594788D01*
X131424334Y-64502686D01*
X131257797Y-64447501D01*
X131257795Y-64447500D01*
X131155010Y-64437000D01*
X129754998Y-64437000D01*
X129754981Y-64437001D01*
X129652203Y-64447500D01*
X129652200Y-64447501D01*
X129485668Y-64502685D01*
X129485663Y-64502687D01*
X129336342Y-64594789D01*
X129212289Y-64718842D01*
X129120187Y-64868163D01*
X129120186Y-64868166D01*
X129065001Y-65034703D01*
X129065001Y-65034704D01*
X129065000Y-65034704D01*
X129054500Y-65137483D01*
X129054500Y-66172434D01*
X129048431Y-66210752D01*
X128991447Y-66386130D01*
X128954500Y-66619402D01*
X128954500Y-75573097D01*
X128991446Y-75806368D01*
X129064433Y-76030996D01*
X129171657Y-76241434D01*
X129310484Y-76432511D01*
X129365792Y-76487819D01*
X129399277Y-76549142D01*
X129394293Y-76618834D01*
X129352421Y-76674767D01*
X129286957Y-76699184D01*
X129278111Y-76699500D01*
X128219998Y-76699500D01*
X128219981Y-76699501D01*
X128117203Y-76710000D01*
X128117200Y-76710001D01*
X127950668Y-76765185D01*
X127950663Y-76765187D01*
X127801342Y-76857289D01*
X127677289Y-76981342D01*
X127585187Y-77130663D01*
X127585186Y-77130666D01*
X127530001Y-77297203D01*
X127530001Y-77297204D01*
X127530000Y-77297204D01*
X127519500Y-77399983D01*
X120500500Y-77399983D01*
X120500500Y-60601798D01*
X120520185Y-60534759D01*
X120572989Y-60489004D01*
X120619909Y-60477883D01*
X173370912Y-58524141D01*
X173438633Y-58541331D01*
G37*
G04 #@! TD.AperFunction*
G04 #@! TA.AperFunction,Conductor*
G36*
X142505039Y-113820185D02*
G01*
X142550794Y-113872989D01*
X142562000Y-113924500D01*
X142562000Y-114315701D01*
X142564901Y-114352567D01*
X142564902Y-114352573D01*
X142610754Y-114510393D01*
X142610756Y-114510399D01*
X142611926Y-114512377D01*
X142612369Y-114514126D01*
X142613853Y-114517554D01*
X142613299Y-114517793D01*
X142629103Y-114580102D01*
X142613749Y-114632395D01*
X142614317Y-114632641D01*
X142612327Y-114637239D01*
X142611928Y-114638599D01*
X142611222Y-114639791D01*
X142611216Y-114639806D01*
X142565400Y-114797505D01*
X142565399Y-114797511D01*
X142565204Y-114799998D01*
X142565205Y-114800000D01*
X142830685Y-114800000D01*
X142893806Y-114817268D01*
X142952102Y-114851744D01*
X142971780Y-114857461D01*
X143109926Y-114897597D01*
X143109929Y-114897597D01*
X143109931Y-114897598D01*
X143146806Y-114900500D01*
X143601000Y-114900500D01*
X143609685Y-114903050D01*
X143618647Y-114901762D01*
X143642687Y-114912740D01*
X143668039Y-114920185D01*
X143673966Y-114927025D01*
X143682203Y-114930787D01*
X143696492Y-114953021D01*
X143713794Y-114972989D01*
X143716081Y-114983503D01*
X143719977Y-114989565D01*
X143725000Y-115024500D01*
X143725000Y-115075500D01*
X143705315Y-115142539D01*
X143652511Y-115188294D01*
X143601000Y-115199500D01*
X137487000Y-115199500D01*
X137419961Y-115179815D01*
X137374206Y-115127011D01*
X137363000Y-115075500D01*
X137363000Y-114924500D01*
X137382685Y-114857461D01*
X137435489Y-114811706D01*
X137487000Y-114800500D01*
X138653186Y-114800500D01*
X138653194Y-114800500D01*
X138690069Y-114797598D01*
X138690071Y-114797597D01*
X138690073Y-114797597D01*
X138784424Y-114770185D01*
X138847898Y-114751744D01*
X138989365Y-114668081D01*
X139105581Y-114551865D01*
X139189244Y-114410398D01*
X139235098Y-114252569D01*
X139238000Y-114215694D01*
X139238000Y-113945440D01*
X139246644Y-113915999D01*
X139253168Y-113886013D01*
X139256922Y-113880997D01*
X139257685Y-113878401D01*
X139274319Y-113857759D01*
X139295259Y-113836819D01*
X139356582Y-113803334D01*
X139382940Y-113800500D01*
X142438000Y-113800500D01*
X142505039Y-113820185D01*
G37*
G04 #@! TD.AperFunction*
G04 #@! TA.AperFunction,Conductor*
G36*
X146441293Y-102262489D02*
G01*
X146485658Y-102290996D01*
X151229650Y-107034988D01*
X151263135Y-107096311D01*
X151258151Y-107166003D01*
X151250000Y-107178685D01*
X151250000Y-107750000D01*
X151893300Y-107750000D01*
X151960339Y-107769685D01*
X151980981Y-107786319D01*
X154488864Y-110294202D01*
X154522349Y-110355525D01*
X154517365Y-110425217D01*
X154511668Y-110438177D01*
X154496288Y-110468361D01*
X154440329Y-110640589D01*
X154412000Y-110819448D01*
X154412000Y-110905500D01*
X154392315Y-110972539D01*
X154339511Y-111018294D01*
X154288000Y-111029500D01*
X153594629Y-111029500D01*
X153594623Y-111029501D01*
X153535016Y-111035908D01*
X153400171Y-111086202D01*
X153400164Y-111086206D01*
X153284955Y-111172452D01*
X153284952Y-111172455D01*
X153198706Y-111287664D01*
X153198704Y-111287668D01*
X153198704Y-111287669D01*
X153194539Y-111298834D01*
X153152671Y-111354766D01*
X153087207Y-111379184D01*
X153078359Y-111379500D01*
X139891790Y-111379500D01*
X139824751Y-111359815D01*
X139778996Y-111307011D01*
X139769052Y-111237853D01*
X139770173Y-111231309D01*
X139799035Y-111086206D01*
X139800500Y-111078842D01*
X139800500Y-110921158D01*
X139800500Y-105257170D01*
X139820185Y-105190131D01*
X139872989Y-105144376D01*
X139942147Y-105134432D01*
X139987620Y-105150437D01*
X140032102Y-105176744D01*
X140073724Y-105188836D01*
X140189926Y-105222597D01*
X140189929Y-105222597D01*
X140189931Y-105222598D01*
X140226806Y-105225500D01*
X141038658Y-105225500D01*
X145907060Y-105225500D01*
X145974099Y-105245185D01*
X145994741Y-105261819D01*
X148980950Y-108248028D01*
X149012345Y-108301114D01*
X149046128Y-108417395D01*
X149046128Y-108417397D01*
X149046130Y-108417400D01*
X149130437Y-108559954D01*
X149130439Y-108559956D01*
X149130441Y-108559959D01*
X149247540Y-108677058D01*
X149247544Y-108677061D01*
X149247546Y-108677063D01*
X149390100Y-108761370D01*
X149432041Y-108773555D01*
X149549137Y-108807575D01*
X149549140Y-108807575D01*
X149549142Y-108807576D01*
X149586297Y-108810500D01*
X150143702Y-108810499D01*
X150180858Y-108807576D01*
X150339900Y-108761370D01*
X150369869Y-108743645D01*
X150437588Y-108726461D01*
X150496113Y-108743645D01*
X150525300Y-108760906D01*
X150525305Y-108760908D01*
X150684216Y-108807077D01*
X150684222Y-108807078D01*
X150721342Y-108809999D01*
X150721358Y-108810000D01*
X150750000Y-108810000D01*
X151250000Y-108810000D01*
X151278642Y-108810000D01*
X151278657Y-108809999D01*
X151315777Y-108807078D01*
X151315783Y-108807077D01*
X151474694Y-108760908D01*
X151474697Y-108760907D01*
X151617142Y-108676666D01*
X151617150Y-108676660D01*
X151734160Y-108559650D01*
X151734166Y-108559642D01*
X151818407Y-108417197D01*
X151818409Y-108417194D01*
X151864578Y-108258281D01*
X151865230Y-108250000D01*
X151250000Y-108250000D01*
X151250000Y-108810000D01*
X150750000Y-108810000D01*
X150750000Y-107190000D01*
X150721342Y-107190000D01*
X150684222Y-107192921D01*
X150684216Y-107192922D01*
X150525304Y-107239091D01*
X150525300Y-107239093D01*
X150496109Y-107256356D01*
X150428384Y-107273536D01*
X150390440Y-107266093D01*
X150379706Y-107262171D01*
X150339900Y-107238630D01*
X150219592Y-107203676D01*
X150215659Y-107202240D01*
X150201350Y-107191678D01*
X150170528Y-107173450D01*
X146800292Y-103803213D01*
X146800288Y-103803210D01*
X146669185Y-103715609D01*
X146669172Y-103715602D01*
X146523501Y-103655264D01*
X146523489Y-103655261D01*
X146368845Y-103624500D01*
X146368842Y-103624500D01*
X145621999Y-103624500D01*
X145617377Y-103623143D01*
X145612669Y-103624148D01*
X145584179Y-103613394D01*
X145554960Y-103604815D01*
X145551806Y-103601176D01*
X145547300Y-103599475D01*
X145529140Y-103575017D01*
X145509205Y-103552011D01*
X145507728Y-103546180D01*
X145505648Y-103543378D01*
X145502376Y-103525038D01*
X145498281Y-103508862D01*
X145497999Y-103504696D01*
X145497999Y-103400640D01*
X145483546Y-103290853D01*
X145483282Y-103286938D01*
X145483487Y-103286011D01*
X145483000Y-103278576D01*
X145483000Y-103108441D01*
X145482999Y-103108439D01*
X145469925Y-103042712D01*
X145452237Y-102953789D01*
X145421593Y-102879807D01*
X145391897Y-102808113D01*
X145391890Y-102808100D01*
X145304290Y-102676998D01*
X145297425Y-102670133D01*
X145210629Y-102583337D01*
X145202431Y-102568324D01*
X145190194Y-102556374D01*
X145186036Y-102538298D01*
X145177146Y-102522017D01*
X145178366Y-102504952D01*
X145174532Y-102488283D01*
X145180806Y-102470828D01*
X145182130Y-102452325D01*
X145192502Y-102438296D01*
X145198169Y-102422533D01*
X145222823Y-102397284D01*
X145258664Y-102369782D01*
X145323833Y-102344590D01*
X145392278Y-102358629D01*
X145403025Y-102365049D01*
X145421821Y-102377608D01*
X145421826Y-102377610D01*
X145564880Y-102436865D01*
X145567498Y-102437949D01*
X145567503Y-102437951D01*
X145629364Y-102450256D01*
X145722154Y-102468714D01*
X145722157Y-102468714D01*
X145879844Y-102468714D01*
X145879845Y-102468713D01*
X146034497Y-102437951D01*
X146180179Y-102377608D01*
X146311289Y-102290003D01*
X146311293Y-102289998D01*
X146315999Y-102286138D01*
X146316989Y-102287345D01*
X146371601Y-102257515D01*
X146441293Y-102262489D01*
G37*
G04 #@! TD.AperFunction*
G04 #@! TA.AperFunction,Conductor*
G36*
X136110539Y-100634185D02*
G01*
X136156294Y-100686989D01*
X136167500Y-100738500D01*
X136167500Y-100741000D01*
X136147815Y-100808039D01*
X136095011Y-100853794D01*
X136043500Y-100865000D01*
X134695205Y-100865000D01*
X134695204Y-100865001D01*
X134695399Y-100867486D01*
X134741218Y-101025198D01*
X134824814Y-101166552D01*
X134829600Y-101172722D01*
X134827140Y-101174629D01*
X134853710Y-101223288D01*
X134848726Y-101292980D01*
X134827662Y-101325781D01*
X134829199Y-101326974D01*
X134824415Y-101333140D01*
X134740755Y-101474603D01*
X134740754Y-101474606D01*
X134694902Y-101632426D01*
X134694901Y-101632432D01*
X134692000Y-101669298D01*
X134692000Y-102100701D01*
X134694901Y-102137567D01*
X134694902Y-102137573D01*
X134740754Y-102295393D01*
X134740755Y-102295396D01*
X134824417Y-102436862D01*
X134829202Y-102443031D01*
X134826756Y-102444927D01*
X134853357Y-102493642D01*
X134848373Y-102563334D01*
X134837439Y-102585565D01*
X134829921Y-102597632D01*
X134824419Y-102603135D01*
X134785539Y-102668876D01*
X134784757Y-102670133D01*
X134759713Y-102692458D01*
X134735171Y-102715373D01*
X134733710Y-102715638D01*
X134732603Y-102716626D01*
X134699452Y-102721869D01*
X134666429Y-102727876D01*
X134665057Y-102727310D01*
X134663591Y-102727542D01*
X134632872Y-102714032D01*
X134601840Y-102701230D01*
X134599991Y-102699571D01*
X134599633Y-102699414D01*
X134599365Y-102699010D01*
X134591828Y-102692249D01*
X134097819Y-102198240D01*
X134064334Y-102136917D01*
X134061500Y-102110559D01*
X134061500Y-100738500D01*
X134081185Y-100671461D01*
X134133989Y-100625706D01*
X134185500Y-100614500D01*
X136043500Y-100614500D01*
X136110539Y-100634185D01*
G37*
G04 #@! TD.AperFunction*
G04 #@! TA.AperFunction,Conductor*
G36*
X159165313Y-72820185D02*
G01*
X159211068Y-72872989D01*
X159221012Y-72942147D01*
X159191987Y-73005703D01*
X159185955Y-73012181D01*
X156376211Y-75821925D01*
X156320460Y-75877676D01*
X156264709Y-75933426D01*
X156177109Y-76064528D01*
X156177102Y-76064541D01*
X156116764Y-76210212D01*
X156116761Y-76210224D01*
X156086000Y-76364867D01*
X156086000Y-99075500D01*
X156066315Y-99142539D01*
X156013511Y-99188294D01*
X155962000Y-99199500D01*
X152072298Y-99199500D01*
X152005259Y-99179815D01*
X151966759Y-99140597D01*
X151930212Y-99081344D01*
X151806156Y-98957288D01*
X151656834Y-98865186D01*
X151490297Y-98810001D01*
X151490295Y-98810000D01*
X151387510Y-98799500D01*
X150612498Y-98799500D01*
X150612480Y-98799501D01*
X150509703Y-98810000D01*
X150509700Y-98810001D01*
X150343168Y-98865185D01*
X150343166Y-98865185D01*
X150343166Y-98865186D01*
X150343162Y-98865187D01*
X150343161Y-98865189D01*
X150314595Y-98882808D01*
X150247202Y-98901247D01*
X150180539Y-98880323D01*
X150135770Y-98826680D01*
X150125500Y-98777268D01*
X150125500Y-98180439D01*
X150145185Y-98113400D01*
X150161814Y-98092763D01*
X154167759Y-94086817D01*
X154229082Y-94053333D01*
X154255440Y-94050499D01*
X155220371Y-94050499D01*
X155220372Y-94050499D01*
X155279983Y-94044091D01*
X155414831Y-93993796D01*
X155530046Y-93907546D01*
X155616296Y-93792331D01*
X155666591Y-93657483D01*
X155673000Y-93597873D01*
X155672999Y-91902128D01*
X155666591Y-91842517D01*
X155642825Y-91778798D01*
X155616297Y-91707671D01*
X155616293Y-91707664D01*
X155530047Y-91592455D01*
X155530044Y-91592452D01*
X155414835Y-91506206D01*
X155414828Y-91506202D01*
X155279982Y-91455908D01*
X155279983Y-91455908D01*
X155220383Y-91449501D01*
X155220381Y-91449500D01*
X155220373Y-91449500D01*
X155220364Y-91449500D01*
X153524629Y-91449500D01*
X153524623Y-91449501D01*
X153465016Y-91455908D01*
X153330171Y-91506202D01*
X153330164Y-91506206D01*
X153214955Y-91592452D01*
X153214952Y-91592455D01*
X153128706Y-91707664D01*
X153128702Y-91707671D01*
X153078408Y-91842517D01*
X153072001Y-91902116D01*
X153072001Y-91902123D01*
X153072000Y-91902135D01*
X153072000Y-92867059D01*
X153052315Y-92934098D01*
X153035680Y-92954740D01*
X148814711Y-97175711D01*
X148782401Y-97208021D01*
X148703209Y-97287212D01*
X148615609Y-97418314D01*
X148615602Y-97418327D01*
X148555264Y-97563998D01*
X148555261Y-97564010D01*
X148524500Y-97718653D01*
X148524500Y-98900270D01*
X148504815Y-98967309D01*
X148488181Y-98987951D01*
X148394789Y-99081342D01*
X148302687Y-99230663D01*
X148302686Y-99230666D01*
X148247501Y-99397203D01*
X148247501Y-99397204D01*
X148247500Y-99397204D01*
X148237000Y-99499983D01*
X148237000Y-101478820D01*
X148217315Y-101545859D01*
X148164511Y-101591614D01*
X148095353Y-101601558D01*
X148031797Y-101572533D01*
X148025319Y-101566501D01*
X147252559Y-100793741D01*
X147219074Y-100732418D01*
X147216240Y-100706060D01*
X147216240Y-100336898D01*
X147216239Y-100336894D01*
X147208257Y-100296762D01*
X147188004Y-100194946D01*
X147185477Y-100182242D01*
X147142647Y-100078842D01*
X147138406Y-100068604D01*
X147125137Y-100036568D01*
X147125136Y-100036567D01*
X147125134Y-100036561D01*
X147100286Y-99999373D01*
X147037530Y-99905452D01*
X146995794Y-99863716D01*
X146926029Y-99793951D01*
X143219758Y-96087680D01*
X143186273Y-96026357D01*
X143191257Y-95956665D01*
X143219758Y-95912318D01*
X144109873Y-95022203D01*
X145185286Y-93946790D01*
X145185289Y-93946789D01*
X145296789Y-93835289D01*
X145384394Y-93704179D01*
X145444737Y-93558497D01*
X145475500Y-93403842D01*
X145475500Y-81695761D01*
X145495185Y-81628722D01*
X145547989Y-81582967D01*
X145612104Y-81572403D01*
X145637521Y-81574999D01*
X145749999Y-81574999D01*
X146250000Y-81574999D01*
X146362472Y-81574999D01*
X146362486Y-81574998D01*
X146465197Y-81564505D01*
X146631619Y-81509358D01*
X146631624Y-81509356D01*
X146780845Y-81417315D01*
X146904815Y-81293345D01*
X146996856Y-81144124D01*
X146996858Y-81144119D01*
X147052005Y-80977697D01*
X147052006Y-80977690D01*
X147062499Y-80874986D01*
X147062500Y-80874973D01*
X147062500Y-80250000D01*
X146250000Y-80250000D01*
X146250000Y-81574999D01*
X145749999Y-81574999D01*
X145750000Y-81574998D01*
X145750000Y-79750000D01*
X146250000Y-79750000D01*
X147062499Y-79750000D01*
X147062499Y-79125028D01*
X147062498Y-79125013D01*
X147052005Y-79022302D01*
X146996858Y-78855880D01*
X146996856Y-78855875D01*
X146904815Y-78706654D01*
X146780845Y-78582684D01*
X146631624Y-78490643D01*
X146631619Y-78490641D01*
X146465197Y-78435494D01*
X146465190Y-78435493D01*
X146362486Y-78425000D01*
X146250000Y-78425000D01*
X146250000Y-79750000D01*
X145750000Y-79750000D01*
X145750000Y-78425000D01*
X145637527Y-78425000D01*
X145637512Y-78425001D01*
X145534803Y-78435494D01*
X145478492Y-78454153D01*
X145408664Y-78456553D01*
X145348622Y-78420821D01*
X145317431Y-78358300D01*
X145324992Y-78288841D01*
X145351806Y-78248768D01*
X150763757Y-72836819D01*
X150825080Y-72803334D01*
X150851438Y-72800500D01*
X159098274Y-72800500D01*
X159165313Y-72820185D01*
G37*
G04 #@! TD.AperFunction*
M02*
