G04 #@! TF.GenerationSoftware,KiCad,Pcbnew,9.0.4*
G04 #@! TF.CreationDate,2026-02-01T17:43:42+05:30*
G04 #@! TF.ProjectId,Classdamp ltversion,436c6173-7364-4616-9d70-206c74766572,rev?*
G04 #@! TF.SameCoordinates,Original*
G04 #@! TF.FileFunction,Soldermask,Top*
G04 #@! TF.FilePolarity,Negative*
%FSLAX46Y46*%
G04 Gerber Fmt 4.6, Leading zero omitted, Abs format (unit mm)*
G04 Created by KiCad (PCBNEW 9.0.4) date 2026-02-01 17:43:42*
%MOMM*%
%LPD*%
G01*
G04 APERTURE LIST*
G04 Aperture macros list*
%AMRoundRect*
0 Rectangle with rounded corners*
0 $1 Rounding radius*
0 $2 $3 $4 $5 $6 $7 $8 $9 X,Y pos of 4 corners*
0 Add a 4 corners polygon primitive as box body*
4,1,4,$2,$3,$4,$5,$6,$7,$8,$9,$2,$3,0*
0 Add four circle primitives for the rounded corners*
1,1,$1+$1,$2,$3*
1,1,$1+$1,$4,$5*
1,1,$1+$1,$6,$7*
1,1,$1+$1,$8,$9*
0 Add four rect primitives between the rounded corners*
20,1,$1+$1,$2,$3,$4,$5,0*
20,1,$1+$1,$4,$5,$6,$7,0*
20,1,$1+$1,$6,$7,$8,$9,0*
20,1,$1+$1,$8,$9,$2,$3,0*%
G04 Aperture macros list end*
%ADD10RoundRect,0.100000X-0.217500X-0.100000X0.217500X-0.100000X0.217500X0.100000X-0.217500X0.100000X0*%
%ADD11RoundRect,0.250000X-0.312500X-0.825000X0.312500X-0.825000X0.312500X0.825000X-0.312500X0.825000X0*%
%ADD12RoundRect,0.155000X-0.212500X-0.155000X0.212500X-0.155000X0.212500X0.155000X-0.212500X0.155000X0*%
%ADD13RoundRect,0.150000X-0.512500X-0.150000X0.512500X-0.150000X0.512500X0.150000X-0.512500X0.150000X0*%
%ADD14RoundRect,0.150000X-0.587500X-0.150000X0.587500X-0.150000X0.587500X0.150000X-0.587500X0.150000X0*%
%ADD15RoundRect,0.150000X-0.825000X-0.150000X0.825000X-0.150000X0.825000X0.150000X-0.825000X0.150000X0*%
%ADD16RoundRect,0.250000X-0.337500X-1.450000X0.337500X-1.450000X0.337500X1.450000X-0.337500X1.450000X0*%
%ADD17RoundRect,0.250000X1.550000X-0.650000X1.550000X0.650000X-1.550000X0.650000X-1.550000X-0.650000X0*%
%ADD18O,3.600000X1.800000*%
%ADD19R,1.300000X1.300000*%
%ADD20C,1.300000*%
%ADD21RoundRect,0.250000X-0.650000X-1.550000X0.650000X-1.550000X0.650000X1.550000X-0.650000X1.550000X0*%
%ADD22O,1.800000X3.600000*%
%ADD23RoundRect,0.250000X-0.362500X-0.700000X0.362500X-0.700000X0.362500X0.700000X-0.362500X0.700000X0*%
%ADD24R,1.600000X1.600000*%
%ADD25C,1.600000*%
G04 APERTURE END LIST*
D10*
X143865000Y-100040000D03*
X144680000Y-100040000D03*
D11*
X140675000Y-96000000D03*
X142000000Y-96000000D03*
D10*
X143865000Y-103540000D03*
X144680000Y-103540000D03*
D12*
X159865000Y-112000000D03*
X161000000Y-112000000D03*
D13*
X143725000Y-114100000D03*
X143725000Y-115050000D03*
X143725000Y-116000000D03*
X146000000Y-116000000D03*
X146000000Y-114100000D03*
D14*
X136125000Y-113050000D03*
X136125000Y-114950000D03*
X138000000Y-114000000D03*
D10*
X163181500Y-69648286D03*
X163996500Y-69648286D03*
D11*
X144675000Y-80000000D03*
X146000000Y-80000000D03*
D15*
X136167500Y-100615000D03*
X136167500Y-101885000D03*
X136167500Y-103155000D03*
X136167500Y-104425000D03*
X141117500Y-104425000D03*
X141117500Y-103155000D03*
X141117500Y-101885000D03*
X141117500Y-100615000D03*
D16*
X149325000Y-101000000D03*
X151000000Y-101000000D03*
D17*
X124875000Y-99640000D03*
D18*
X124875000Y-94560000D03*
D19*
X132460000Y-109000000D03*
D20*
X133730000Y-107730000D03*
X135000000Y-109000000D03*
D11*
X168675000Y-64000000D03*
X170000000Y-64000000D03*
D21*
X128920000Y-79000000D03*
D22*
X134000000Y-79000000D03*
D11*
X123675000Y-116000000D03*
X125000000Y-116000000D03*
D23*
X154675000Y-102000000D03*
X158000000Y-102000000D03*
D12*
X167865000Y-72000000D03*
X169000000Y-72000000D03*
D24*
X154372500Y-92750000D03*
D25*
X160872500Y-92750000D03*
D14*
X129125000Y-112050000D03*
X129125000Y-113950000D03*
X131000000Y-113000000D03*
D19*
X154292500Y-112180000D03*
D20*
X155562500Y-110910000D03*
X156832500Y-112180000D03*
D10*
X143865000Y-101790000D03*
X144680000Y-101790000D03*
D12*
X167865000Y-92000000D03*
X169000000Y-92000000D03*
D21*
X130455000Y-66737500D03*
D22*
X135535000Y-66737500D03*
D12*
X149865000Y-108000000D03*
X151000000Y-108000000D03*
X162415000Y-64000000D03*
X163550000Y-64000000D03*
M02*
