G04 #@! TF.GenerationSoftware,KiCad,Pcbnew,9.0.4*
G04 #@! TF.CreationDate,2026-02-01T17:43:42+05:30*
G04 #@! TF.ProjectId,Classdamp ltversion,436c6173-7364-4616-9d70-206c74766572,rev?*
G04 #@! TF.SameCoordinates,Original*
G04 #@! TF.FileFunction,Copper,L2,Bot*
G04 #@! TF.FilePolarity,Positive*
%FSLAX46Y46*%
G04 Gerber Fmt 4.6, Leading zero omitted, Abs format (unit mm)*
G04 Created by KiCad (PCBNEW 9.0.4) date 2026-02-01 17:43:42*
%MOMM*%
%LPD*%
G01*
G04 APERTURE LIST*
G04 Aperture macros list*
%AMRoundRect*
0 Rectangle with rounded corners*
0 $1 Rounding radius*
0 $2 $3 $4 $5 $6 $7 $8 $9 X,Y pos of 4 corners*
0 Add a 4 corners polygon primitive as box body*
4,1,4,$2,$3,$4,$5,$6,$7,$8,$9,$2,$3,0*
0 Add four circle primitives for the rounded corners*
1,1,$1+$1,$2,$3*
1,1,$1+$1,$4,$5*
1,1,$1+$1,$6,$7*
1,1,$1+$1,$8,$9*
0 Add four rect primitives between the rounded corners*
20,1,$1+$1,$2,$3,$4,$5,0*
20,1,$1+$1,$4,$5,$6,$7,0*
20,1,$1+$1,$6,$7,$8,$9,0*
20,1,$1+$1,$8,$9,$2,$3,0*%
G04 Aperture macros list end*
G04 #@! TA.AperFunction,ComponentPad*
%ADD10RoundRect,0.250000X1.550000X-0.650000X1.550000X0.650000X-1.550000X0.650000X-1.550000X-0.650000X0*%
G04 #@! TD*
G04 #@! TA.AperFunction,ComponentPad*
%ADD11O,3.600000X1.800000*%
G04 #@! TD*
G04 #@! TA.AperFunction,ComponentPad*
%ADD12R,1.300000X1.300000*%
G04 #@! TD*
G04 #@! TA.AperFunction,ComponentPad*
%ADD13C,1.300000*%
G04 #@! TD*
G04 #@! TA.AperFunction,ComponentPad*
%ADD14RoundRect,0.250000X-0.650000X-1.550000X0.650000X-1.550000X0.650000X1.550000X-0.650000X1.550000X0*%
G04 #@! TD*
G04 #@! TA.AperFunction,ComponentPad*
%ADD15O,1.800000X3.600000*%
G04 #@! TD*
G04 #@! TA.AperFunction,ComponentPad*
%ADD16R,1.600000X1.600000*%
G04 #@! TD*
G04 #@! TA.AperFunction,ComponentPad*
%ADD17C,1.600000*%
G04 #@! TD*
G04 #@! TA.AperFunction,ViaPad*
%ADD18C,0.600000*%
G04 #@! TD*
G04 #@! TA.AperFunction,Conductor*
%ADD19C,0.600000*%
G04 #@! TD*
G04 APERTURE END LIST*
D10*
X124875000Y-99640000D03*
D11*
X124875000Y-94560000D03*
D12*
X132460000Y-109000000D03*
D13*
X133730000Y-107730000D03*
X135000000Y-109000000D03*
D14*
X128920000Y-79000000D03*
D15*
X134000000Y-79000000D03*
D16*
X154372500Y-92750000D03*
D17*
X160872500Y-92750000D03*
D12*
X154292500Y-112180000D03*
D13*
X155562500Y-110910000D03*
X156832500Y-112180000D03*
D14*
X130455000Y-66737500D03*
D15*
X135535000Y-66737500D03*
D18*
X137888128Y-101000000D03*
X139488128Y-100897220D03*
X136762500Y-114084290D03*
X154000000Y-111000000D03*
X146000000Y-98000000D03*
X156000000Y-100000000D03*
X155209054Y-108750942D03*
X139000000Y-111000000D03*
X145801000Y-101668214D03*
X144862500Y-116449810D03*
X143000000Y-102000000D03*
X149000000Y-114000000D03*
X144682500Y-103540000D03*
D19*
X137888128Y-101000000D02*
X139385348Y-101000000D01*
X139385348Y-101000000D02*
X139488128Y-100897220D01*
X144000000Y-115000000D02*
X151000000Y-108000000D01*
X156832500Y-110552240D02*
X156832500Y-112180000D01*
X146000000Y-98000000D02*
X136734429Y-98000000D01*
X134398000Y-100336429D02*
X134398000Y-101663572D01*
X136734429Y-98000000D02*
X134398000Y-100336429D01*
X145000000Y-101000000D02*
X145000000Y-100000000D01*
X145000000Y-102000000D02*
X145000000Y-101000000D01*
X154000000Y-110844740D02*
X155085740Y-109759000D01*
X156039260Y-109759000D02*
X156832500Y-110552240D01*
X134398000Y-101663572D02*
X135535429Y-102801000D01*
X137000000Y-100000000D02*
X136000000Y-101000000D01*
X136762500Y-114084290D02*
X143084290Y-114084290D01*
X145000000Y-102132785D02*
X145000000Y-101000000D01*
X155085740Y-109759000D02*
X156039260Y-109759000D01*
X143084290Y-114084290D02*
X144000000Y-115000000D01*
X145000000Y-100000000D02*
X137000000Y-100000000D01*
X154000000Y-111000000D02*
X154000000Y-110844740D01*
X135535429Y-102801000D02*
X144331785Y-102801000D01*
X151000000Y-108000000D02*
X145000000Y-102000000D01*
X144331785Y-102801000D02*
X145000000Y-102132785D01*
X156000000Y-100000000D02*
X158000000Y-102000000D01*
X128920000Y-79000000D02*
X128920000Y-111920000D01*
X128920000Y-111920000D02*
X129000000Y-112000000D01*
X154961013Y-108750942D02*
X153199000Y-110512955D01*
X155209054Y-108750942D02*
X154961013Y-108750942D01*
X153199000Y-111331786D02*
X154047214Y-112180000D01*
X154047214Y-112180000D02*
X154292500Y-112180000D01*
X153199000Y-110512955D02*
X153199000Y-111331786D01*
X139000000Y-111000000D02*
X138000000Y-111000000D01*
X138000000Y-111000000D02*
X135000000Y-114000000D01*
X135867214Y-102000000D02*
X143000000Y-102000000D01*
X151801000Y-106801000D02*
X146000000Y-101000000D01*
X143000000Y-102000000D02*
X144000000Y-102000000D01*
X146000000Y-101000000D02*
X145801000Y-101199000D01*
X149000000Y-114000000D02*
X151801000Y-111199000D01*
X145801000Y-101199000D02*
X145801000Y-101668214D01*
X145801000Y-101668214D02*
X145801000Y-99668215D01*
X145801000Y-99668215D02*
X145331785Y-99199000D01*
X151801000Y-111199000D02*
X151801000Y-106801000D01*
X145331785Y-99199000D02*
X136668214Y-99199000D01*
X136668214Y-99199000D02*
X135199000Y-100668214D01*
X135199000Y-101331786D02*
X135867214Y-102000000D01*
X135199000Y-100668214D02*
X135199000Y-101331786D01*
G04 #@! TA.AperFunction,Conductor*
G36*
X144943539Y-100019185D02*
G01*
X144989294Y-100071989D01*
X145000500Y-100123500D01*
X145000500Y-101700224D01*
X144980815Y-101767263D01*
X144928011Y-101813018D01*
X144858853Y-101822962D01*
X144795297Y-101793937D01*
X144761939Y-101747676D01*
X144709397Y-101620827D01*
X144709390Y-101620814D01*
X144621789Y-101489711D01*
X144621786Y-101489707D01*
X144510292Y-101378213D01*
X144510288Y-101378210D01*
X144379185Y-101290609D01*
X144379172Y-101290602D01*
X144233501Y-101230264D01*
X144233489Y-101230261D01*
X144078845Y-101199500D01*
X144078842Y-101199500D01*
X143078842Y-101199500D01*
X140395278Y-101199500D01*
X140328239Y-101179815D01*
X140282484Y-101127011D01*
X140272540Y-101057853D01*
X140273661Y-101051309D01*
X140288627Y-100976066D01*
X140288628Y-100976064D01*
X140288628Y-100818375D01*
X140288627Y-100818373D01*
X140257866Y-100663730D01*
X140257865Y-100663723D01*
X140240092Y-100620814D01*
X140197525Y-100518047D01*
X140197518Y-100518034D01*
X140109917Y-100386931D01*
X140109914Y-100386927D01*
X139998420Y-100275433D01*
X139998416Y-100275430D01*
X139925340Y-100226602D01*
X139880535Y-100172990D01*
X139871828Y-100103665D01*
X139901983Y-100040637D01*
X139961426Y-100003918D01*
X139994231Y-99999500D01*
X144876500Y-99999500D01*
X144943539Y-100019185D01*
G37*
G04 #@! TD.AperFunction*
G04 #@! TA.AperFunction,Conductor*
G36*
X137655391Y-100019185D02*
G01*
X137701146Y-100071989D01*
X137711090Y-100141147D01*
X137682065Y-100204703D01*
X137635804Y-100238061D01*
X137508955Y-100290602D01*
X137508942Y-100290609D01*
X137377839Y-100378210D01*
X137377835Y-100378213D01*
X137266341Y-100489707D01*
X137266338Y-100489711D01*
X137178737Y-100620814D01*
X137178730Y-100620827D01*
X137118392Y-100766498D01*
X137118389Y-100766510D01*
X137087628Y-100921153D01*
X137087628Y-101075500D01*
X137067943Y-101142539D01*
X137015139Y-101188294D01*
X136963628Y-101199500D01*
X136250153Y-101199500D01*
X136220712Y-101190855D01*
X136190726Y-101184332D01*
X136185710Y-101180577D01*
X136183114Y-101179815D01*
X136162472Y-101163181D01*
X136126302Y-101127011D01*
X136086971Y-101087679D01*
X136053487Y-101026358D01*
X136058471Y-100956666D01*
X136086970Y-100912321D01*
X136963473Y-100035819D01*
X137024796Y-100002334D01*
X137051154Y-99999500D01*
X137588352Y-99999500D01*
X137655391Y-100019185D01*
G37*
G04 #@! TD.AperFunction*
G04 #@! TA.AperFunction,Conductor*
G36*
X173438633Y-58541331D02*
G01*
X173486311Y-58592405D01*
X173499500Y-58648056D01*
X173499500Y-118375500D01*
X173479815Y-118442539D01*
X173427011Y-118488294D01*
X173375500Y-118499500D01*
X120624500Y-118499500D01*
X120557461Y-118479815D01*
X120511706Y-118427011D01*
X120500500Y-118375500D01*
X120500500Y-116370963D01*
X144062000Y-116370963D01*
X144062000Y-116528656D01*
X144092761Y-116683299D01*
X144092764Y-116683311D01*
X144153102Y-116828982D01*
X144153109Y-116828995D01*
X144240710Y-116960098D01*
X144240713Y-116960102D01*
X144352207Y-117071596D01*
X144352211Y-117071599D01*
X144483314Y-117159200D01*
X144483327Y-117159207D01*
X144628998Y-117219545D01*
X144629003Y-117219547D01*
X144783653Y-117250309D01*
X144783656Y-117250310D01*
X144783658Y-117250310D01*
X144941344Y-117250310D01*
X144941345Y-117250309D01*
X145095997Y-117219547D01*
X145241679Y-117159204D01*
X145372789Y-117071599D01*
X145484289Y-116960099D01*
X145571894Y-116828989D01*
X145632237Y-116683307D01*
X145663000Y-116528652D01*
X145663000Y-116370968D01*
X145663000Y-116370965D01*
X145662999Y-116370963D01*
X145632238Y-116216320D01*
X145632237Y-116216313D01*
X145632235Y-116216308D01*
X145571897Y-116070637D01*
X145571890Y-116070624D01*
X145484289Y-115939521D01*
X145484286Y-115939517D01*
X145372792Y-115828023D01*
X145372788Y-115828020D01*
X145241685Y-115740419D01*
X145241672Y-115740412D01*
X145096001Y-115680074D01*
X145095989Y-115680071D01*
X144941345Y-115649310D01*
X144941342Y-115649310D01*
X144783658Y-115649310D01*
X144783655Y-115649310D01*
X144629010Y-115680071D01*
X144628998Y-115680074D01*
X144483327Y-115740412D01*
X144483314Y-115740419D01*
X144352211Y-115828020D01*
X144352207Y-115828023D01*
X144240713Y-115939517D01*
X144240710Y-115939521D01*
X144153109Y-116070624D01*
X144153102Y-116070637D01*
X144092764Y-116216308D01*
X144092761Y-116216320D01*
X144062000Y-116370963D01*
X120500500Y-116370963D01*
X120500500Y-113921153D01*
X134199500Y-113921153D01*
X134199500Y-114078846D01*
X134230261Y-114233489D01*
X134230264Y-114233501D01*
X134290602Y-114379172D01*
X134290609Y-114379185D01*
X134378210Y-114510288D01*
X134378213Y-114510292D01*
X134489707Y-114621786D01*
X134489711Y-114621789D01*
X134620814Y-114709390D01*
X134620827Y-114709397D01*
X134766498Y-114769735D01*
X134766503Y-114769737D01*
X134921153Y-114800499D01*
X134921156Y-114800500D01*
X134921158Y-114800500D01*
X135078844Y-114800500D01*
X135078845Y-114800499D01*
X135233497Y-114769737D01*
X135379179Y-114709394D01*
X135510289Y-114621789D01*
X138295259Y-111836819D01*
X138356582Y-111803334D01*
X138382940Y-111800500D01*
X139078844Y-111800500D01*
X139078845Y-111800499D01*
X139233497Y-111769737D01*
X139379179Y-111709394D01*
X139510289Y-111621789D01*
X139621789Y-111510289D01*
X139709394Y-111379179D01*
X139769737Y-111233497D01*
X139800500Y-111078842D01*
X139800500Y-110921158D01*
X139800500Y-110921155D01*
X139800499Y-110921153D01*
X139785258Y-110844533D01*
X139769737Y-110766503D01*
X139717583Y-110640591D01*
X139709397Y-110620827D01*
X139709390Y-110620814D01*
X139621789Y-110489711D01*
X139621786Y-110489707D01*
X139510292Y-110378213D01*
X139510288Y-110378210D01*
X139379185Y-110290609D01*
X139379172Y-110290602D01*
X139233501Y-110230264D01*
X139233489Y-110230261D01*
X139078845Y-110199500D01*
X139078842Y-110199500D01*
X138078843Y-110199500D01*
X137921158Y-110199500D01*
X137921153Y-110199500D01*
X137766510Y-110230260D01*
X137766502Y-110230262D01*
X137620824Y-110290604D01*
X137620814Y-110290609D01*
X137489711Y-110378210D01*
X137489707Y-110378213D01*
X134378213Y-113489707D01*
X134378210Y-113489711D01*
X134290609Y-113620814D01*
X134290602Y-113620827D01*
X134230264Y-113766498D01*
X134230261Y-113766510D01*
X134199500Y-113921153D01*
X120500500Y-113921153D01*
X120500500Y-98939983D01*
X122574500Y-98939983D01*
X122574500Y-100340001D01*
X122574501Y-100340018D01*
X122585000Y-100442796D01*
X122585001Y-100442799D01*
X122633571Y-100589372D01*
X122640186Y-100609334D01*
X122732288Y-100758656D01*
X122856344Y-100882712D01*
X123005666Y-100974814D01*
X123172203Y-101029999D01*
X123274991Y-101040500D01*
X126475008Y-101040499D01*
X126577797Y-101029999D01*
X126744334Y-100974814D01*
X126893656Y-100882712D01*
X127017712Y-100758656D01*
X127109814Y-100609334D01*
X127164999Y-100442797D01*
X127175500Y-100340009D01*
X127175499Y-98939992D01*
X127164999Y-98837203D01*
X127109814Y-98670666D01*
X127017712Y-98521344D01*
X126893656Y-98397288D01*
X126744334Y-98305186D01*
X126577797Y-98250001D01*
X126577795Y-98250000D01*
X126475010Y-98239500D01*
X123274998Y-98239500D01*
X123274981Y-98239501D01*
X123172203Y-98250000D01*
X123172200Y-98250001D01*
X123005668Y-98305185D01*
X123005663Y-98305187D01*
X122856342Y-98397289D01*
X122732289Y-98521342D01*
X122640187Y-98670663D01*
X122640186Y-98670666D01*
X122585001Y-98837203D01*
X122585001Y-98837204D01*
X122585000Y-98837204D01*
X122574500Y-98939983D01*
X120500500Y-98939983D01*
X120500500Y-94449778D01*
X122574500Y-94449778D01*
X122574500Y-94670221D01*
X122608985Y-94887952D01*
X122677103Y-95097603D01*
X122677104Y-95097606D01*
X122777187Y-95294025D01*
X122906752Y-95472358D01*
X122906756Y-95472363D01*
X123062636Y-95628243D01*
X123062641Y-95628247D01*
X123218192Y-95741260D01*
X123240978Y-95757815D01*
X123369375Y-95823237D01*
X123437393Y-95857895D01*
X123437396Y-95857896D01*
X123542221Y-95891955D01*
X123647049Y-95926015D01*
X123864778Y-95960500D01*
X123864779Y-95960500D01*
X125885221Y-95960500D01*
X125885222Y-95960500D01*
X126102951Y-95926015D01*
X126312606Y-95857895D01*
X126509022Y-95757815D01*
X126687365Y-95628242D01*
X126843242Y-95472365D01*
X126972815Y-95294022D01*
X127072895Y-95097606D01*
X127141015Y-94887951D01*
X127175500Y-94670222D01*
X127175500Y-94449778D01*
X127141015Y-94232049D01*
X127082027Y-94050499D01*
X127072896Y-94022396D01*
X127072895Y-94022393D01*
X127014375Y-93907544D01*
X126972815Y-93825978D01*
X126911777Y-93741966D01*
X126843247Y-93647641D01*
X126843243Y-93647636D01*
X126687363Y-93491756D01*
X126687358Y-93491752D01*
X126509025Y-93362187D01*
X126509024Y-93362186D01*
X126509022Y-93362185D01*
X126446096Y-93330122D01*
X126312606Y-93262104D01*
X126312603Y-93262103D01*
X126102952Y-93193985D01*
X125994086Y-93176742D01*
X125885222Y-93159500D01*
X123864778Y-93159500D01*
X123792201Y-93170995D01*
X123647047Y-93193985D01*
X123437396Y-93262103D01*
X123437393Y-93262104D01*
X123240974Y-93362187D01*
X123062641Y-93491752D01*
X123062636Y-93491756D01*
X122906756Y-93647636D01*
X122906752Y-93647641D01*
X122777187Y-93825974D01*
X122677104Y-94022393D01*
X122677103Y-94022396D01*
X122608985Y-94232047D01*
X122574500Y-94449778D01*
X120500500Y-94449778D01*
X120500500Y-77399983D01*
X127519500Y-77399983D01*
X127519500Y-80600001D01*
X127519501Y-80600018D01*
X127530000Y-80702796D01*
X127530001Y-80702799D01*
X127566308Y-80812365D01*
X127585186Y-80869334D01*
X127677288Y-81018656D01*
X127801344Y-81142712D01*
X127950666Y-81234814D01*
X128034505Y-81262595D01*
X128091948Y-81302366D01*
X128118772Y-81366882D01*
X128119500Y-81380300D01*
X128119500Y-111998846D01*
X128150261Y-112153489D01*
X128150264Y-112153501D01*
X128210602Y-112299172D01*
X128210609Y-112299185D01*
X128298210Y-112430288D01*
X128298213Y-112430292D01*
X128489707Y-112621786D01*
X128489711Y-112621789D01*
X128620814Y-112709390D01*
X128620827Y-112709397D01*
X128766498Y-112769735D01*
X128766503Y-112769737D01*
X128911264Y-112798532D01*
X128921153Y-112800499D01*
X128921156Y-112800500D01*
X128921158Y-112800500D01*
X129078844Y-112800500D01*
X129078845Y-112800499D01*
X129233497Y-112769737D01*
X129379179Y-112709394D01*
X129510289Y-112621789D01*
X129621789Y-112510289D01*
X129709394Y-112379179D01*
X129769737Y-112233497D01*
X129800500Y-112078842D01*
X129800500Y-111921158D01*
X129800500Y-111921155D01*
X129800499Y-111921153D01*
X129769739Y-111766511D01*
X129769736Y-111766501D01*
X129729939Y-111670421D01*
X129720500Y-111622969D01*
X129720500Y-108302135D01*
X131309500Y-108302135D01*
X131309500Y-109697870D01*
X131309501Y-109697876D01*
X131315908Y-109757483D01*
X131366202Y-109892328D01*
X131366206Y-109892335D01*
X131452452Y-110007544D01*
X131452455Y-110007547D01*
X131567664Y-110093793D01*
X131567671Y-110093797D01*
X131702517Y-110144091D01*
X131702516Y-110144091D01*
X131709444Y-110144835D01*
X131762127Y-110150500D01*
X133157872Y-110150499D01*
X133217483Y-110144091D01*
X133352331Y-110093796D01*
X133467546Y-110007546D01*
X133553796Y-109892331D01*
X133604091Y-109757483D01*
X133610500Y-109697873D01*
X133610499Y-109157124D01*
X133630183Y-109090087D01*
X133682987Y-109044332D01*
X133752146Y-109034388D01*
X133815702Y-109063413D01*
X133853476Y-109122191D01*
X133856972Y-109137728D01*
X133877829Y-109269410D01*
X133933787Y-109441636D01*
X133933788Y-109441639D01*
X133989143Y-109550276D01*
X133991191Y-109554297D01*
X134016006Y-109602997D01*
X134122441Y-109749494D01*
X134122445Y-109749499D01*
X134250500Y-109877554D01*
X134250505Y-109877558D01*
X134317186Y-109926004D01*
X134397006Y-109983996D01*
X134492084Y-110032441D01*
X134558360Y-110066211D01*
X134558363Y-110066212D01*
X134643251Y-110093793D01*
X134730591Y-110122171D01*
X134813429Y-110135291D01*
X134909449Y-110150500D01*
X134909454Y-110150500D01*
X135090551Y-110150500D01*
X135177259Y-110136765D01*
X135269409Y-110122171D01*
X135441639Y-110066211D01*
X135602994Y-109983996D01*
X135749501Y-109877553D01*
X135877553Y-109749501D01*
X135983996Y-109602994D01*
X136066211Y-109441639D01*
X136122171Y-109269409D01*
X136144232Y-109130121D01*
X136150500Y-109090551D01*
X136150500Y-108909448D01*
X136134019Y-108805397D01*
X136122171Y-108730591D01*
X136066211Y-108558361D01*
X136066211Y-108558360D01*
X136037740Y-108502484D01*
X135983996Y-108397006D01*
X135915055Y-108302116D01*
X135877558Y-108250505D01*
X135877554Y-108250500D01*
X135749499Y-108122445D01*
X135749494Y-108122441D01*
X135602997Y-108016006D01*
X135602996Y-108016005D01*
X135602994Y-108016004D01*
X135534692Y-107981202D01*
X135441639Y-107933788D01*
X135441636Y-107933787D01*
X135269410Y-107877829D01*
X135090551Y-107849500D01*
X135090546Y-107849500D01*
X135004500Y-107849500D01*
X134937461Y-107829815D01*
X134891706Y-107777011D01*
X134880500Y-107725500D01*
X134880500Y-107639448D01*
X134864019Y-107535397D01*
X134852171Y-107460591D01*
X134796211Y-107288361D01*
X134796211Y-107288360D01*
X134767740Y-107232484D01*
X134713996Y-107127006D01*
X134691657Y-107096259D01*
X134607558Y-106980505D01*
X134607554Y-106980500D01*
X134479499Y-106852445D01*
X134479494Y-106852441D01*
X134332997Y-106746006D01*
X134332996Y-106746005D01*
X134332994Y-106746004D01*
X134281300Y-106719664D01*
X134171639Y-106663788D01*
X134171636Y-106663787D01*
X133999410Y-106607829D01*
X133820551Y-106579500D01*
X133820546Y-106579500D01*
X133639454Y-106579500D01*
X133639449Y-106579500D01*
X133460589Y-106607829D01*
X133288363Y-106663787D01*
X133288360Y-106663788D01*
X133127002Y-106746006D01*
X132980505Y-106852441D01*
X132980500Y-106852445D01*
X132852445Y-106980500D01*
X132852441Y-106980505D01*
X132746006Y-107127002D01*
X132663788Y-107288360D01*
X132663787Y-107288363D01*
X132607829Y-107460589D01*
X132579500Y-107639448D01*
X132579500Y-107725500D01*
X132559815Y-107792539D01*
X132507011Y-107838294D01*
X132455500Y-107849500D01*
X131762129Y-107849500D01*
X131762123Y-107849501D01*
X131702516Y-107855908D01*
X131567671Y-107906202D01*
X131567664Y-107906206D01*
X131452455Y-107992452D01*
X131452452Y-107992455D01*
X131366206Y-108107664D01*
X131366202Y-108107671D01*
X131315908Y-108242517D01*
X131309501Y-108302116D01*
X131309500Y-108302135D01*
X129720500Y-108302135D01*
X129720500Y-100589367D01*
X134398500Y-100589367D01*
X134398500Y-101410632D01*
X134429261Y-101565275D01*
X134429264Y-101565287D01*
X134489602Y-101710958D01*
X134489609Y-101710971D01*
X134577210Y-101842074D01*
X134577213Y-101842078D01*
X135241084Y-102505947D01*
X135241105Y-102505970D01*
X135356921Y-102621786D01*
X135356925Y-102621789D01*
X135488028Y-102709390D01*
X135488041Y-102709397D01*
X135633712Y-102769735D01*
X135633717Y-102769737D01*
X135633721Y-102769737D01*
X135633722Y-102769738D01*
X135788368Y-102800500D01*
X143990559Y-102800500D01*
X144057598Y-102820185D01*
X144103353Y-102872989D01*
X144113297Y-102942147D01*
X144084272Y-103005703D01*
X144078240Y-103012181D01*
X144060713Y-103029707D01*
X144060710Y-103029711D01*
X143973109Y-103160814D01*
X143973102Y-103160827D01*
X143912764Y-103306498D01*
X143912761Y-103306510D01*
X143882000Y-103461153D01*
X143882000Y-103618846D01*
X143912761Y-103773489D01*
X143912764Y-103773501D01*
X143973102Y-103919172D01*
X143973109Y-103919185D01*
X144060710Y-104050288D01*
X144060713Y-104050292D01*
X144172207Y-104161786D01*
X144172211Y-104161789D01*
X144303314Y-104249390D01*
X144303327Y-104249397D01*
X144448998Y-104309735D01*
X144449003Y-104309737D01*
X144603653Y-104340499D01*
X144603656Y-104340500D01*
X144603658Y-104340500D01*
X144761344Y-104340500D01*
X144761345Y-104340499D01*
X144915997Y-104309737D01*
X145061679Y-104249394D01*
X145192789Y-104161789D01*
X145304289Y-104050289D01*
X145391894Y-103919179D01*
X145452237Y-103773497D01*
X145483000Y-103618842D01*
X145483000Y-103461158D01*
X145483000Y-103461155D01*
X145482999Y-103461153D01*
X145452238Y-103306510D01*
X145452237Y-103306503D01*
X145452235Y-103306498D01*
X145391897Y-103160827D01*
X145391890Y-103160814D01*
X145304289Y-103029711D01*
X145304286Y-103029707D01*
X145192792Y-102918213D01*
X145192788Y-102918210D01*
X145061685Y-102830609D01*
X145061672Y-102830602D01*
X144916001Y-102770264D01*
X144915989Y-102770261D01*
X144761345Y-102739500D01*
X144761342Y-102739500D01*
X144691941Y-102739500D01*
X144624902Y-102719815D01*
X144579147Y-102667011D01*
X144569203Y-102597853D01*
X144598228Y-102534297D01*
X144604260Y-102527819D01*
X144621786Y-102510292D01*
X144621789Y-102510289D01*
X144709394Y-102379179D01*
X144710044Y-102377611D01*
X144723067Y-102346166D01*
X144769737Y-102233497D01*
X144800500Y-102078842D01*
X144800500Y-101967989D01*
X144820185Y-101900950D01*
X144872989Y-101855195D01*
X144942147Y-101845251D01*
X145005703Y-101874276D01*
X145039061Y-101920537D01*
X145091602Y-102047386D01*
X145091609Y-102047399D01*
X145179210Y-102178502D01*
X145179213Y-102178506D01*
X145290707Y-102290000D01*
X145290711Y-102290003D01*
X145421814Y-102377604D01*
X145421827Y-102377611D01*
X145517050Y-102417053D01*
X145567503Y-102437951D01*
X145722153Y-102468713D01*
X145722156Y-102468714D01*
X145722158Y-102468714D01*
X145879844Y-102468714D01*
X145879845Y-102468713D01*
X146034497Y-102437951D01*
X146149845Y-102390172D01*
X146219310Y-102382704D01*
X146281789Y-102413979D01*
X146284975Y-102417053D01*
X150964181Y-107096259D01*
X150997666Y-107157582D01*
X151000500Y-107183940D01*
X151000500Y-110816059D01*
X150980815Y-110883098D01*
X150964181Y-110903740D01*
X148378213Y-113489707D01*
X148378210Y-113489711D01*
X148290609Y-113620814D01*
X148290602Y-113620827D01*
X148230264Y-113766498D01*
X148230261Y-113766510D01*
X148199500Y-113921153D01*
X148199500Y-114078846D01*
X148230261Y-114233489D01*
X148230264Y-114233501D01*
X148290602Y-114379172D01*
X148290609Y-114379185D01*
X148378210Y-114510288D01*
X148378213Y-114510292D01*
X148489707Y-114621786D01*
X148489711Y-114621789D01*
X148620814Y-114709390D01*
X148620827Y-114709397D01*
X148766498Y-114769735D01*
X148766503Y-114769737D01*
X148921153Y-114800499D01*
X148921156Y-114800500D01*
X148921158Y-114800500D01*
X149078844Y-114800500D01*
X149078845Y-114800499D01*
X149233497Y-114769737D01*
X149379179Y-114709394D01*
X149510289Y-114621789D01*
X152355332Y-111776746D01*
X152416655Y-111743261D01*
X152486347Y-111748245D01*
X152542280Y-111790117D01*
X152546102Y-111795518D01*
X152567426Y-111827431D01*
X152577212Y-111842077D01*
X152577213Y-111842078D01*
X153105681Y-112370545D01*
X153139166Y-112431868D01*
X153142000Y-112458226D01*
X153142000Y-112877870D01*
X153142001Y-112877876D01*
X153148408Y-112937483D01*
X153198702Y-113072328D01*
X153198706Y-113072335D01*
X153284952Y-113187544D01*
X153284955Y-113187547D01*
X153400164Y-113273793D01*
X153400171Y-113273797D01*
X153535017Y-113324091D01*
X153535016Y-113324091D01*
X153541944Y-113324835D01*
X153594627Y-113330500D01*
X154990372Y-113330499D01*
X155049983Y-113324091D01*
X155184831Y-113273796D01*
X155300046Y-113187546D01*
X155386296Y-113072331D01*
X155386299Y-113072323D01*
X155390337Y-113061498D01*
X155390339Y-113061493D01*
X155436591Y-112937482D01*
X155443000Y-112877873D01*
X155442999Y-112333923D01*
X155462683Y-112266886D01*
X155515487Y-112221131D01*
X155584646Y-112211187D01*
X155648202Y-112240212D01*
X155685976Y-112298990D01*
X155689472Y-112314527D01*
X155710817Y-112449293D01*
X155766751Y-112621444D01*
X155766752Y-112621447D01*
X155848931Y-112782730D01*
X155860413Y-112798532D01*
X155860413Y-112798533D01*
X156457500Y-112201446D01*
X156457500Y-112229370D01*
X156483056Y-112324745D01*
X156532425Y-112410255D01*
X156602245Y-112480075D01*
X156687755Y-112529444D01*
X156783130Y-112555000D01*
X156811053Y-112555000D01*
X156213966Y-113152085D01*
X156213966Y-113152086D01*
X156229767Y-113163566D01*
X156229775Y-113163571D01*
X156391052Y-113245747D01*
X156391055Y-113245748D01*
X156563206Y-113301682D01*
X156741994Y-113330000D01*
X156923006Y-113330000D01*
X157101793Y-113301682D01*
X157273944Y-113245748D01*
X157273952Y-113245745D01*
X157435230Y-113163568D01*
X157451032Y-113152085D01*
X157451033Y-113152085D01*
X156853948Y-112555000D01*
X156881870Y-112555000D01*
X156977245Y-112529444D01*
X157062755Y-112480075D01*
X157132575Y-112410255D01*
X157181944Y-112324745D01*
X157207500Y-112229370D01*
X157207500Y-112201448D01*
X157804585Y-112798533D01*
X157804585Y-112798532D01*
X157816068Y-112782730D01*
X157898245Y-112621452D01*
X157898248Y-112621444D01*
X157954182Y-112449293D01*
X157982500Y-112270506D01*
X157982500Y-112089493D01*
X157954182Y-111910706D01*
X157898248Y-111738555D01*
X157898247Y-111738552D01*
X157816071Y-111577275D01*
X157816066Y-111577267D01*
X157804585Y-111561466D01*
X157207500Y-112158551D01*
X157207500Y-112130630D01*
X157181944Y-112035255D01*
X157132575Y-111949745D01*
X157062755Y-111879925D01*
X156977245Y-111830556D01*
X156881870Y-111805000D01*
X156853946Y-111805000D01*
X157451033Y-111207913D01*
X157435230Y-111196431D01*
X157273947Y-111114252D01*
X157273944Y-111114251D01*
X157101793Y-111058317D01*
X156923006Y-111030000D01*
X156837000Y-111030000D01*
X156769961Y-111010315D01*
X156724206Y-110957511D01*
X156713000Y-110906000D01*
X156713000Y-110819448D01*
X156696519Y-110715397D01*
X156684671Y-110640591D01*
X156628711Y-110468361D01*
X156628711Y-110468360D01*
X156582776Y-110378210D01*
X156546496Y-110307006D01*
X156490740Y-110230264D01*
X156440058Y-110160505D01*
X156440054Y-110160500D01*
X156311999Y-110032445D01*
X156311994Y-110032441D01*
X156165497Y-109926006D01*
X156165496Y-109926005D01*
X156165494Y-109926004D01*
X156113800Y-109899664D01*
X156004139Y-109843788D01*
X156004136Y-109843787D01*
X155831910Y-109787829D01*
X155653051Y-109759500D01*
X155653046Y-109759500D01*
X155489375Y-109759500D01*
X155422336Y-109739815D01*
X155376581Y-109687011D01*
X155366637Y-109617853D01*
X155395662Y-109554297D01*
X155441923Y-109520939D01*
X155588226Y-109460339D01*
X155588226Y-109460338D01*
X155588233Y-109460336D01*
X155719343Y-109372731D01*
X155830843Y-109261231D01*
X155918448Y-109130121D01*
X155978791Y-108984439D01*
X156009554Y-108829784D01*
X156009554Y-108672100D01*
X156009554Y-108672097D01*
X156009553Y-108672095D01*
X155986930Y-108558363D01*
X155978791Y-108517445D01*
X155928904Y-108397006D01*
X155918451Y-108371769D01*
X155918444Y-108371756D01*
X155830843Y-108240653D01*
X155830840Y-108240649D01*
X155719346Y-108129155D01*
X155719342Y-108129152D01*
X155588239Y-108041551D01*
X155588226Y-108041544D01*
X155442555Y-107981206D01*
X155442543Y-107981203D01*
X155287899Y-107950442D01*
X155287896Y-107950442D01*
X155039856Y-107950442D01*
X154882171Y-107950442D01*
X154882166Y-107950442D01*
X154727523Y-107981202D01*
X154727515Y-107981204D01*
X154581837Y-108041546D01*
X154581827Y-108041551D01*
X154450724Y-108129152D01*
X154450720Y-108129155D01*
X152813181Y-109766695D01*
X152751858Y-109800180D01*
X152682166Y-109795196D01*
X152626233Y-109753324D01*
X152601816Y-109687860D01*
X152601500Y-109679014D01*
X152601500Y-106722155D01*
X152601499Y-106722153D01*
X152570737Y-106567503D01*
X152570735Y-106567498D01*
X152510397Y-106421827D01*
X152510390Y-106421814D01*
X152422790Y-106290712D01*
X152422789Y-106290711D01*
X152311289Y-106179211D01*
X146637819Y-100505741D01*
X146604334Y-100444418D01*
X146601500Y-100418060D01*
X146601500Y-99921153D01*
X155199500Y-99921153D01*
X155199500Y-100078846D01*
X155230261Y-100233489D01*
X155230264Y-100233501D01*
X155290602Y-100379172D01*
X155290609Y-100379185D01*
X155378210Y-100510288D01*
X155378213Y-100510292D01*
X157489705Y-102621784D01*
X157489712Y-102621790D01*
X157620819Y-102709392D01*
X157620820Y-102709392D01*
X157620821Y-102709393D01*
X157766503Y-102769737D01*
X157921153Y-102800499D01*
X157921156Y-102800500D01*
X157921158Y-102800500D01*
X158078844Y-102800500D01*
X158078845Y-102800499D01*
X158233497Y-102769737D01*
X158379179Y-102709393D01*
X158510289Y-102621789D01*
X158621789Y-102510289D01*
X158709393Y-102379179D01*
X158769737Y-102233497D01*
X158800500Y-102078842D01*
X158800500Y-101921158D01*
X158800500Y-101921155D01*
X158800499Y-101921153D01*
X158796480Y-101900950D01*
X158769737Y-101766503D01*
X158709393Y-101620821D01*
X158709388Y-101620814D01*
X158621790Y-101489712D01*
X158621784Y-101489705D01*
X156510292Y-99378213D01*
X156510288Y-99378210D01*
X156379185Y-99290609D01*
X156379172Y-99290602D01*
X156233501Y-99230264D01*
X156233489Y-99230261D01*
X156078845Y-99199500D01*
X156078842Y-99199500D01*
X155921158Y-99199500D01*
X155921155Y-99199500D01*
X155766510Y-99230261D01*
X155766498Y-99230264D01*
X155620827Y-99290602D01*
X155620814Y-99290609D01*
X155489711Y-99378210D01*
X155489707Y-99378213D01*
X155378213Y-99489707D01*
X155378210Y-99489711D01*
X155290609Y-99620814D01*
X155290602Y-99620827D01*
X155230264Y-99766498D01*
X155230261Y-99766510D01*
X155199500Y-99921153D01*
X146601500Y-99921153D01*
X146601500Y-99589374D01*
X146599592Y-99579782D01*
X146599591Y-99579778D01*
X146599273Y-99578179D01*
X146570737Y-99434718D01*
X146566105Y-99423535D01*
X146511046Y-99290609D01*
X146510397Y-99289042D01*
X146510390Y-99289029D01*
X146422790Y-99157927D01*
X146422789Y-99157926D01*
X146311289Y-99046426D01*
X146102063Y-98837200D01*
X145842076Y-98577212D01*
X145842073Y-98577210D01*
X145710970Y-98489609D01*
X145710957Y-98489602D01*
X145565286Y-98429264D01*
X145565274Y-98429261D01*
X145410630Y-98398500D01*
X145410627Y-98398500D01*
X136747056Y-98398500D01*
X136589371Y-98398500D01*
X136589368Y-98398500D01*
X136434723Y-98429261D01*
X136434711Y-98429264D01*
X136392046Y-98446936D01*
X136392047Y-98446937D01*
X136289037Y-98489604D01*
X136289028Y-98489609D01*
X136157926Y-98577209D01*
X136157925Y-98577211D01*
X136157924Y-98577212D01*
X134688711Y-100046425D01*
X134656294Y-100078842D01*
X134577209Y-100157926D01*
X134489609Y-100289028D01*
X134489602Y-100289041D01*
X134429264Y-100434712D01*
X134429261Y-100434724D01*
X134398500Y-100589367D01*
X129720500Y-100589367D01*
X129720500Y-91902135D01*
X153072000Y-91902135D01*
X153072000Y-93597870D01*
X153072001Y-93597876D01*
X153078408Y-93657483D01*
X153128702Y-93792328D01*
X153128706Y-93792335D01*
X153214952Y-93907544D01*
X153214955Y-93907547D01*
X153330164Y-93993793D01*
X153330171Y-93993797D01*
X153465017Y-94044091D01*
X153465016Y-94044091D01*
X153471944Y-94044835D01*
X153524627Y-94050500D01*
X155220372Y-94050499D01*
X155279983Y-94044091D01*
X155414831Y-93993796D01*
X155530046Y-93907546D01*
X155616296Y-93792331D01*
X155666591Y-93657483D01*
X155673000Y-93597873D01*
X155672999Y-92647648D01*
X159572000Y-92647648D01*
X159572000Y-92852351D01*
X159604022Y-93054534D01*
X159667281Y-93249223D01*
X159760215Y-93431613D01*
X159880528Y-93597213D01*
X160025286Y-93741971D01*
X160180249Y-93854556D01*
X160190890Y-93862287D01*
X160279712Y-93907544D01*
X160373276Y-93955218D01*
X160373278Y-93955218D01*
X160373281Y-93955220D01*
X160477637Y-93989127D01*
X160567965Y-94018477D01*
X160669057Y-94034488D01*
X160770148Y-94050500D01*
X160770149Y-94050500D01*
X160974851Y-94050500D01*
X160974852Y-94050500D01*
X161177034Y-94018477D01*
X161371719Y-93955220D01*
X161554110Y-93862287D01*
X161650401Y-93792328D01*
X161719713Y-93741971D01*
X161719715Y-93741968D01*
X161719719Y-93741966D01*
X161864466Y-93597219D01*
X161864468Y-93597215D01*
X161864471Y-93597213D01*
X161941087Y-93491758D01*
X161984787Y-93431610D01*
X162077720Y-93249219D01*
X162140977Y-93054534D01*
X162173000Y-92852352D01*
X162173000Y-92647648D01*
X162140977Y-92445466D01*
X162077720Y-92250781D01*
X162077718Y-92250778D01*
X162077718Y-92250776D01*
X162044003Y-92184607D01*
X161984787Y-92068390D01*
X161977056Y-92057749D01*
X161864471Y-91902786D01*
X161719713Y-91758028D01*
X161554113Y-91637715D01*
X161554112Y-91637714D01*
X161554110Y-91637713D01*
X161497153Y-91608691D01*
X161371723Y-91544781D01*
X161177034Y-91481522D01*
X161002495Y-91453878D01*
X160974852Y-91449500D01*
X160770148Y-91449500D01*
X160745829Y-91453351D01*
X160567965Y-91481522D01*
X160373276Y-91544781D01*
X160190886Y-91637715D01*
X160025286Y-91758028D01*
X159880528Y-91902786D01*
X159760215Y-92068386D01*
X159667281Y-92250776D01*
X159604022Y-92445465D01*
X159572000Y-92647648D01*
X155672999Y-92647648D01*
X155672999Y-91902128D01*
X155666591Y-91842517D01*
X155616296Y-91707669D01*
X155616295Y-91707668D01*
X155616293Y-91707664D01*
X155530047Y-91592455D01*
X155530044Y-91592452D01*
X155414835Y-91506206D01*
X155414828Y-91506202D01*
X155279982Y-91455908D01*
X155279983Y-91455908D01*
X155220383Y-91449501D01*
X155220381Y-91449500D01*
X155220373Y-91449500D01*
X155220364Y-91449500D01*
X153524629Y-91449500D01*
X153524623Y-91449501D01*
X153465016Y-91455908D01*
X153330171Y-91506202D01*
X153330164Y-91506206D01*
X153214955Y-91592452D01*
X153214952Y-91592455D01*
X153128706Y-91707664D01*
X153128702Y-91707671D01*
X153078408Y-91842517D01*
X153072001Y-91902116D01*
X153072001Y-91902123D01*
X153072000Y-91902135D01*
X129720500Y-91902135D01*
X129720500Y-81380300D01*
X129740185Y-81313261D01*
X129792989Y-81267506D01*
X129805482Y-81262599D01*
X129889334Y-81234814D01*
X130038656Y-81142712D01*
X130162712Y-81018656D01*
X130254814Y-80869334D01*
X130309999Y-80702797D01*
X130320500Y-80600009D01*
X130320499Y-77989778D01*
X132599500Y-77989778D01*
X132599500Y-80010221D01*
X132633985Y-80227952D01*
X132702103Y-80437603D01*
X132702104Y-80437606D01*
X132770122Y-80571096D01*
X132784854Y-80600009D01*
X132802187Y-80634025D01*
X132931752Y-80812358D01*
X132931756Y-80812363D01*
X133087636Y-80968243D01*
X133087641Y-80968247D01*
X133243192Y-81081260D01*
X133265978Y-81097815D01*
X133394375Y-81163237D01*
X133462393Y-81197895D01*
X133462396Y-81197896D01*
X133567221Y-81231955D01*
X133672049Y-81266015D01*
X133889778Y-81300500D01*
X133889779Y-81300500D01*
X134110221Y-81300500D01*
X134110222Y-81300500D01*
X134327951Y-81266015D01*
X134537606Y-81197895D01*
X134734022Y-81097815D01*
X134912365Y-80968242D01*
X135068242Y-80812365D01*
X135197815Y-80634022D01*
X135297895Y-80437606D01*
X135366015Y-80227951D01*
X135400500Y-80010222D01*
X135400500Y-77989778D01*
X135366015Y-77772049D01*
X135297895Y-77562394D01*
X135297895Y-77562393D01*
X135215149Y-77399998D01*
X135197815Y-77365978D01*
X135147848Y-77297204D01*
X135068247Y-77187641D01*
X135068243Y-77187636D01*
X134912363Y-77031756D01*
X134912358Y-77031752D01*
X134734025Y-76902187D01*
X134734024Y-76902186D01*
X134734022Y-76902185D01*
X134645908Y-76857288D01*
X134537606Y-76802104D01*
X134537603Y-76802103D01*
X134327952Y-76733985D01*
X134176516Y-76710000D01*
X134110222Y-76699500D01*
X133889778Y-76699500D01*
X133823484Y-76710000D01*
X133672047Y-76733985D01*
X133462396Y-76802103D01*
X133462393Y-76802104D01*
X133265974Y-76902187D01*
X133087641Y-77031752D01*
X133087636Y-77031756D01*
X132931756Y-77187636D01*
X132931752Y-77187641D01*
X132802187Y-77365974D01*
X132702104Y-77562393D01*
X132702103Y-77562396D01*
X132633985Y-77772047D01*
X132599500Y-77989778D01*
X130320499Y-77989778D01*
X130320499Y-77399992D01*
X130317024Y-77365978D01*
X130309999Y-77297203D01*
X130309998Y-77297200D01*
X130254814Y-77130666D01*
X130162712Y-76981344D01*
X130038656Y-76857288D01*
X129889334Y-76765186D01*
X129722797Y-76710001D01*
X129722795Y-76710000D01*
X129620010Y-76699500D01*
X128219998Y-76699500D01*
X128219981Y-76699501D01*
X128117203Y-76710000D01*
X128117200Y-76710001D01*
X127950668Y-76765185D01*
X127950663Y-76765187D01*
X127801342Y-76857289D01*
X127677289Y-76981342D01*
X127585187Y-77130663D01*
X127585186Y-77130666D01*
X127530001Y-77297203D01*
X127530001Y-77297204D01*
X127530000Y-77297204D01*
X127519500Y-77399983D01*
X120500500Y-77399983D01*
X120500500Y-65137483D01*
X129054500Y-65137483D01*
X129054500Y-68337501D01*
X129054501Y-68337518D01*
X129065000Y-68440296D01*
X129065001Y-68440299D01*
X129101308Y-68549865D01*
X129120186Y-68606834D01*
X129212288Y-68756156D01*
X129336344Y-68880212D01*
X129485666Y-68972314D01*
X129652203Y-69027499D01*
X129754991Y-69038000D01*
X131155008Y-69037999D01*
X131257797Y-69027499D01*
X131424334Y-68972314D01*
X131573656Y-68880212D01*
X131697712Y-68756156D01*
X131789814Y-68606834D01*
X131844999Y-68440297D01*
X131855500Y-68337509D01*
X131855499Y-65727278D01*
X134134500Y-65727278D01*
X134134500Y-67747721D01*
X134168985Y-67965452D01*
X134237103Y-68175103D01*
X134237104Y-68175106D01*
X134305122Y-68308596D01*
X134319854Y-68337509D01*
X134337187Y-68371525D01*
X134466752Y-68549858D01*
X134466756Y-68549863D01*
X134622636Y-68705743D01*
X134622641Y-68705747D01*
X134778192Y-68818760D01*
X134800978Y-68835315D01*
X134929375Y-68900737D01*
X134997393Y-68935395D01*
X134997396Y-68935396D01*
X135102221Y-68969455D01*
X135207049Y-69003515D01*
X135424778Y-69038000D01*
X135424779Y-69038000D01*
X135645221Y-69038000D01*
X135645222Y-69038000D01*
X135862951Y-69003515D01*
X136072606Y-68935395D01*
X136269022Y-68835315D01*
X136447365Y-68705742D01*
X136603242Y-68549865D01*
X136732815Y-68371522D01*
X136832895Y-68175106D01*
X136901015Y-67965451D01*
X136935500Y-67747722D01*
X136935500Y-65727278D01*
X136901015Y-65509549D01*
X136832895Y-65299894D01*
X136832895Y-65299893D01*
X136750149Y-65137498D01*
X136732815Y-65103478D01*
X136682848Y-65034704D01*
X136603247Y-64925141D01*
X136603243Y-64925136D01*
X136447363Y-64769256D01*
X136447358Y-64769252D01*
X136269025Y-64639687D01*
X136269024Y-64639686D01*
X136269022Y-64639685D01*
X136180908Y-64594788D01*
X136072606Y-64539604D01*
X136072603Y-64539603D01*
X135862952Y-64471485D01*
X135711516Y-64447500D01*
X135645222Y-64437000D01*
X135424778Y-64437000D01*
X135358484Y-64447500D01*
X135207047Y-64471485D01*
X134997396Y-64539603D01*
X134997393Y-64539604D01*
X134800974Y-64639687D01*
X134622641Y-64769252D01*
X134622636Y-64769256D01*
X134466756Y-64925136D01*
X134466752Y-64925141D01*
X134337187Y-65103474D01*
X134237104Y-65299893D01*
X134237103Y-65299896D01*
X134168985Y-65509547D01*
X134134500Y-65727278D01*
X131855499Y-65727278D01*
X131855499Y-65137492D01*
X131852024Y-65103478D01*
X131844999Y-65034703D01*
X131844998Y-65034700D01*
X131789814Y-64868166D01*
X131697712Y-64718844D01*
X131573656Y-64594788D01*
X131424334Y-64502686D01*
X131257797Y-64447501D01*
X131257795Y-64447500D01*
X131155010Y-64437000D01*
X129754998Y-64437000D01*
X129754981Y-64437001D01*
X129652203Y-64447500D01*
X129652200Y-64447501D01*
X129485668Y-64502685D01*
X129485663Y-64502687D01*
X129336342Y-64594789D01*
X129212289Y-64718842D01*
X129120187Y-64868163D01*
X129120186Y-64868166D01*
X129065001Y-65034703D01*
X129065001Y-65034704D01*
X129065000Y-65034704D01*
X129054500Y-65137483D01*
X120500500Y-65137483D01*
X120500500Y-60601798D01*
X120520185Y-60534759D01*
X120572989Y-60489004D01*
X120619909Y-60477883D01*
X173370912Y-58524141D01*
X173438633Y-58541331D01*
G37*
G04 #@! TD.AperFunction*
M02*
