M48
; DRILL file {KiCad 9.0.4} date 2026-02-01T17:43:29+0530
; FORMAT={-:-/ absolute / metric / decimal}
; #@! TF.CreationDate,2026-02-01T17:43:29+05:30
; #@! TF.GenerationSoftware,Kicad,Pcbnew,9.0.4
; #@! TF.FileFunction,Plated,1,2,PTH
FMAT,2
METRIC
; #@! TA.AperFunction,Plated,PTH,ViaDrill
T1C0.300
; #@! TA.AperFunction,Plated,PTH,ComponentDrill
T2C0.750
; #@! TA.AperFunction,Plated,PTH,ComponentDrill
T3C1.000
; #@! TA.AperFunction,Plated,PTH,ComponentDrill
T4C1.200
%
G90
G05
T1
X136.762Y-114.084
X137.888Y-101.0
X139.0Y-111.0
X139.488Y-100.897
X143.0Y-102.0
X144.683Y-103.54
X144.862Y-116.45
X145.801Y-101.668
X146.0Y-98.0
X149.0Y-114.0
X154.0Y-111.0
X155.209Y-108.751
X156.0Y-100.0
T2
X132.46Y-109.0
X133.73Y-107.73
X135.0Y-109.0
X154.292Y-112.18
X155.562Y-110.91
X156.832Y-112.18
T3
X154.373Y-92.75
X160.873Y-92.75
T4
X124.875Y-94.56
X124.875Y-99.64
X128.92Y-79.0
X130.455Y-66.737
X134.0Y-79.0
X135.535Y-66.737
M30
